<?xml version="1.0" encoding="UTF-8" standalone="no"?>
<svg
   xmlns:dc="http://purl.org/dc/elements/1.1/"
   xmlns:cc="http://creativecommons.org/ns#"
   xmlns:rdf="http://www.w3.org/1999/02/22-rdf-syntax-ns#"
   xmlns:svg="http://www.w3.org/2000/svg"
   xmlns="http://www.w3.org/2000/svg"
   xmlns:sodipodi="http://sodipodi.sourceforge.net/DTD/sodipodi-0.dtd"
   xmlns:inkscape="http://www.inkscape.org/namespaces/inkscape"
   viewBox="0 0 917.83 326.57"
   version="1.1"
   id="svg140"
   sodipodi:docname="bue-logo.svg"
   inkscape:version="1.0.1 (3bc2e813f5, 2020-09-07)">
  <metadata
     id="metadata144">
    <rdf:RDF>
      <cc:Work
         rdf:about="">
        <dc:format>image/svg+xml</dc:format>
        <dc:type
           rdf:resource="http://purl.org/dc/dcmitype/StillImage" />
      </cc:Work>
    </rdf:RDF>
  </metadata>
  <sodipodi:namedview
     pagecolor="#ffffff"
     bordercolor="#666666"
     borderopacity="1"
     objecttolerance="10"
     gridtolerance="10"
     guidetolerance="10"
     inkscape:pageopacity="0"
     inkscape:pageshadow="2"
     inkscape:window-width="1920"
     inkscape:window-height="1025"
     id="namedview142"
     showgrid="false"
     inkscape:zoom="1.2736563"
     inkscape:cx="460.87786"
     inkscape:cy="163.285"
     inkscape:window-x="0"
     inkscape:window-y="25"
     inkscape:window-maximized="1"
     inkscape:current-layer="svg140" />
  <defs
     id="defs4">
    <style
       id="style2">.cls-1{fill:#c41a1e;}.cls-2{fill:#004b8f;}.cls-3{fill:#231f20;}.cls-4{fill:#014b8f;}.cls-5{fill:#024b8f;}.cls-6{fill:#034b8f;}.cls-7{fill:#044b8f;}.cls-8{fill:#054b8f;}.cls-9{fill:#074c8f;}.cls-10{fill:#094c90;}.cls-11{fill:#0d4d90;}.cls-12{fill:#0a4c90;}.cls-13{fill:#074c90;}.cls-14{fill:#084c90;}.cls-15{fill:#114d91;}.cls-16{fill:#0e4d91;}.cls-17{fill:#0e4d90;}.cls-18{fill:#104d91;}</style>
  </defs>
  <g
     id="Layer_2"
     data-name="Layer 2"
     style="fill:#ffffff">
    <g
       id="Layer_1-2"
       data-name="Layer 1"
       style="fill:#ffffff">
      <path
         class="cls-1"
         d="M82.59,0c0,1,.08,2,.08,3.07V136.62l51.68-51.36.81.19c0,3.77,0,7.54,0,11.3,0,1-.75,1.37-1.28,1.9q-20.7,20.61-41.44,41.18a5.92,5.92,0,0,0-1.6,2.08h2.27c13.33,0,26.66,0,40,0,1.7,0,2.21.39,2.19,2.16q-.13,12.84,0,25.68c0,1.69-.46,2-2.07,2-14.36-.07-28.72,0-43.07,0H87.4c4.37,4.32,8.35,8.25,12.31,12.19l34.59,34.36a2.45,2.45,0,0,1,1,1.84c0,3.85,0,7.71,0,12.17L82.74,180V301.5a6.26,6.26,0,0,1-1-.28,282.59,282.59,0,0,1-28.78-18,4.14,4.14,0,0,1-1.89-3.81q-.06-38.31-.24-76.61c0-6.43-.11-12.87-.17-19.31,0-.48-.06-1-.14-2L8.22,224.23c-1.07-3.81-1.87-6.81-2.78-9.78-.3-.95.28-1.34.78-1.84Q20.94,198,35.67,183.36C39.45,179.61,43.2,175.83,47,172c-.75-.57-1.5-.3-2.18-.31q-21.31,0-42.63,0c-1.37,0-2.13-.12-2.12-1.79q0-13.4-.07-26.78c0-1.42.84-1.25,1.72-1.25H44.48l-4.09-4.09Q20.85,118.4,1.26,99A3.8,3.8,0,0,1,0,95.94c.08-3.49,0-7,0-11.15l50.68,50.36v-3q0-64.65,0-129.31c0-.94.15-1.88.23-2.82Z"
         id="path6"
         style="fill:#ffffff" />
      <path
         class="cls-2"
         d="M819.57,200.48c-28.93,0-57.86,0-86.8.06-2.3,0-2.83-.65-2.7-2.8.19-3.06.12-6.15,0-9.22,0-1.44.38-1.9,1.84-1.85a42.78,42.78,0,0,0,10.71-.71c9.93-2.2,14.77-7.77,15.51-17.94.08-1.16.1-2.34.1-3.51q0-63,0-126a34.41,34.41,0,0,0-.85-7.83c-1.63-7-6-11.33-12.95-13.1A42.92,42.92,0,0,0,732,16.35c-1.54.06-2-.39-2-1.94.11-3.44.08-6.88,0-10.32,0-1.17.37-1.61,1.5-1.46a10.09,10.09,0,0,0,1.1,0q82.95,0,165.9,0c1.87,0,2.58.35,2.66,2.39.44,11,1,21.9,1.6,32.85.17,3.28.24,6.58.53,9.85.1,1.22-.16,1.55-1.33,1.52q-4.39-.09-8.79,0c-1.08,0-1.49-.25-1.63-1.39a70.16,70.16,0,0,0-2-10.76c-3.09-10.78-6.26-13.44-18-15.1a77.11,77.11,0,0,0-10.74-.51q-28,0-56,0c-1.76,0-2.32.32-2.31,2.22q.12,32.82,0,65.64c0,1.77.34,2.33,2.24,2.32,15.3-.09,30.61,0,45.92-.06a42.08,42.08,0,0,0,9.15-1c10.1-2.23,14.85-7.72,15.63-18.07.11-1.44-.59-3.34.39-4.2s2.93-.25,4.45-.29c2,0,4,.08,5.93,0,1.43-.08,2,.35,1.87,1.82-.12,2.12,0,4.24,0,6.37,0,18.14,0,36.29,0,54.44,0,1.83-.47,2.41-2.31,2.31a83.06,83.06,0,0,0-8.35,0c-1.51.06-2.09-.34-2-1.92a24.07,24.07,0,0,0-.54-6.33c-1.51-8.19-6.72-12.65-14.62-14.38a51.26,51.26,0,0,0-11.11-1.1c-14.87,0-29.74,0-44.61,0-1.57,0-2.1.29-2.09,2,.07,17.85,0,35.71.05,53.56a39,39,0,0,0,.87,8.06c1,4.53,3,6.45,7.59,7.31a29.32,29.32,0,0,0,5.45.5c15.9,0,31.79,0,47.69-.1a62.12,62.12,0,0,0,15-2,24,24,0,0,0,17.13-15A53.79,53.79,0,0,0,899.74,151c.19-1.27.59-1.89,2.06-1.83,3.29.13,6.59.09,9.89,0,1.28,0,1.55.34,1.45,1.61-1.32,15.66-2.61,31.33-3.78,47-.16,2.16-.81,2.72-3,2.72C877.44,200.45,848.5,200.48,819.57,200.48Z"
         id="path8"
         style="fill:#ffffff" />
      <path
         class="cls-2"
         d="M512.54,88.64c0-18.75,0-34.42,0-50.08a35.64,35.64,0,0,0-.89-8c-1.62-7-6-11.19-12.83-12.94a44.05,44.05,0,0,0-12.63-1.23c-1.49.06-1.86-.44-1.82-1.85.09-3.3.14-6.6,0-9.88-.08-1.71.49-2,2.09-2q36.15.07,72.3,0c7.76,0,15.53.09,23.29,0,2.06,0,2.44.61,2.34,2.45a85.71,85.71,0,0,0,0,8.78c.11,1.94-.36,2.72-2.47,2.56a38.8,38.8,0,0,0-9.61.71c-9.72,1.72-15,7.48-15.86,17.38-.14,1.67-.22,3.36-.22,5,0,26.93-.05,53.86,0,80.79A138.76,138.76,0,0,0,558,144.54c2.82,15.81,11.89,26.61,26.7,32.44a76.37,76.37,0,0,0,54.93,1c16.78-5.94,26.45-18.62,31-35.45a82.26,82.26,0,0,0,2.85-21.68q.08-41.38,0-82.77a30.19,30.19,0,0,0-.83-7.39c-2.09-8.45-7.81-13-17.46-14a56.39,56.39,0,0,0-8.11-.36c-1,.05-1.62-.09-1.59-1.37q.12-5.49,0-11c0-1.31.59-1.37,1.59-1.36,5.06,0,10.11,0,15.17,0,19,0,38.09,0,57.13,0,1.78,0,2.41.34,2.3,2.23a70.91,70.91,0,0,0,0,9.22c.14,2.06-.62,2.42-2.45,2.32a38.52,38.52,0,0,0-9.39.7C699.85,19,694.8,24.6,694,34.84c-.09,1.17-.1,2.34-.1,3.51,0,26.27.05,52.55,0,78.82,0,13.07-1.34,26-5.75,38.41-8.14,22.95-24.57,36.94-47.57,43.76a127.8,127.8,0,0,1-33.33,4.89c-15.21.37-30.29-.5-45-4.85-17.77-5.27-32.12-15-40.85-31.81-5.33-10.3-7.8-21.39-8.47-32.87C512,118.33,512.81,101.93,512.54,88.64Z"
         id="path10"
         style="fill:#ffffff" />
      <path
         class="cls-1"
         d="M144.14.45l51.36,0c0,.73.06,1.46.06,2.19q0,147.77,0,295.51a3.53,3.53,0,0,1-2.21,3.65c-15.3,8.29-31.14,15.42-47.07,22.37a4.27,4.27,0,0,1-2.07.67,4.84,4.84,0,0,1-.19-2.35q0-159.84,0-319.66C144.06,2.06,144.11,1.25,144.14.45Z"
         id="path12"
         style="fill:#ffffff" />
      <path
         class="cls-3"
         d="M222.87.47l53.45,0c0,.81.07,1.61.07,2.41q0,79.37,0,158.72A238.53,238.53,0,0,1,272.5,207c-5.05,26.14-17,48.4-37,66.16-4,3.53-8.06,6.93-12.67,10.32V2.22C222.81,1.64,222.85,1.06,222.87.47Z"
         id="path14"
         style="fill:#ffffff" />
      <path
         class="cls-2"
         d="M135.27,326.57,115.89,318c-8.82-3.9-17.53-8-26.09-12.49a2.24,2.24,0,0,1-1.53-2.27q.08-54.42,0-108.85c0-.27,0-.54,0-.81L89,193a6.15,6.15,0,0,0,.83,1.49q22,22.06,44.11,44.07a4,4,0,0,1,1.37,3q-.06,41.58,0,83.17Z"
         id="path16"
         style="fill:#ffffff" />
      <path
         class="cls-2"
         d="M88.36.48q22.41,0,44.8-.06c1.2,0,1.87.16,1.87,1.64q-.1,36.53-.11,73.05L88.63,121.26c-.55-.33-.31-.82-.31-1.2q0-59.25,0-118.48C88.31,1.21,88.35.85,88.36.48Z"
         id="path18"
         style="fill:#ffffff" />
      <path
         class="cls-2"
         d="M.33,75.58Q.32,38.92.27,2.25C.26.78.76.41,2.16.41Q23.27.49,44.35.4c1.93,0,1.88,1,1.88,2.3q0,34,0,68.06,0,23.82,0,47.64c0,.8.46,1.79-.54,2.39Z"
         id="path20"
         style="fill:#ffffff" />
      <path
         class="cls-4"
         d="M46.36,277.87a126.13,126.13,0,0,1-17.21-16.69,107.72,107.72,0,0,1-18.32-30.24c-.37-.91-.75-1.6.17-2.52q17.46-17.32,34.85-34.73c.08-.09.25-.09.51-.16Z"
         id="path22"
         style="fill:#ffffff" />
      <path
         class="cls-4"
         d="M832.83,273.68c0,9.51,0,18.29,0,27.06,0,1.64.3,2.25,2.13,2.23,10-.1,20,0,30.77,0l-3.46-2.61c-2.11-1.58-4.27-3.09-6.31-4.76a7.32,7.32,0,0,0-7.17-1.49c-.4.13-.93.42-1.21,0s.06-.93.39-1.34a7.34,7.34,0,0,1,10.6-1.44c3.66,2.68,7.33,5.34,11,8.08A16.61,16.61,0,0,0,880.26,303c6-.14,12-.08,18,0,1.47,0,1.84-.45,1.82-1.87-.06-7.46,0-14.92,0-22.38,0-.63.21-1.37-.5-1.79-1.09-.63-.65-1.31,0-1.91.83-.84,1.31-2.83,2.37-2.45,1.71.61,3.15,2.06,4.6,3.29.5.43-.2.94-.51,1.24-2,1.9-2.16,4.25-2.13,6.82.11,7.39,0,14.78.07,22.17,0,1.51-.21,2.17-2,2.16q-34.05-.09-68.11-.05c-3.49,0-5.13-1.32-5.19-4.81-.16-8.49-.14-17,0-25.46C828.66,275.68,831.22,275.51,832.83,273.68Z"
         id="path24"
         style="fill:#ffffff" />
      <path
         class="cls-5"
         d="M677.34,290c1.35,4.07,2.63,7.71,3.75,11.39a1.84,1.84,0,0,0,2.12,1.6q7.9-.09,15.81,0c1.28,0,1.81-.28,1.8-1.68-.06-7.54,0-15.07,0-22.6a6.38,6.38,0,0,0-.11-1.31c-.15-.66-1.57-.67-1-1.62.66-1.13,1.37-2.73,2.38-3,1.71-.51,2.66,1.57,4.07,2.33.47.25,1.36.5,1,1.43a1.44,1.44,0,0,1-.38.53c-2.32,2.1-2.29,4.81-2.25,7.65.1,7.09,0,14.18.07,21.28,0,1.78-.39,2.33-2.26,2.32-13.69-.08-27.39,0-41.07-.09-2.11,0-3.17.38-3.29,2.7a18.26,18.26,0,0,1-1.76,6.3c-2.12,4.83-6.37,6.66-11.35,4.91a19.71,19.71,0,0,1-4.17-1.93,1,1,0,0,1-.56-.87c.07-.62.61-.49,1-.52.87-.07,1.75-.09,2.62-.17,6.35-.59,10.45-4.43,11.6-10.68.4-2.18-.83-3.79-1.61-5.56-1.68-3.81-1.67-4,1.8-7.25.84,2.23,1.65,4.38,2.44,6.54.26.71.46,1.33,1.45,1.32,5.76,0,11.52,0,17.51,0a57.91,57.91,0,0,0-2-6c-1-2.09-.72-3.74,1-5.25A19.11,19.11,0,0,0,677.34,290Z"
         id="path26"
         style="fill:#ffffff" />
      <path
         class="cls-4"
         d="M135.27,105.32c0,9.63,0,19.5,0,29.38,0,1.17-.23,1.7-1.55,1.69-9.82,0-19.63,0-29.44,0-.13,0-.25-.1-.11,0Z"
         id="path28"
         style="fill:#ffffff" />
      <path
         class="cls-4"
         d="M135.27,210.3,104,179.05c.36-.34,1-.11,1.53-.11q13.83,0,27.68,0c.91,0,2.11-.45,2.1,1.33C135.24,190.27,135.27,200.28,135.27,210.3Z"
         id="path30"
         style="fill:#ffffff" />
      <path
         class="cls-4"
         d="M30.75,136.45c-.06.07-.53-.09-.94-.09H1.9C1,136.37,0,136.59,0,135c0-9.86,0-19.72,0-29.25Z"
         id="path32"
         style="fill:#ffffff" />
      <path
         class="cls-4"
         d="M511,293.43a11.22,11.22,0,0,0-5.86,6c-.47,1-.05,1.23.88,1.37,1.73.27,3.44.66,5.24,1-.3,1.43-1.25,2.48-1.85,3.7-.47.92-1.28.54-1.94.44-1.67-.23-3.31-.66-5-.82-2.12-.19-2.22-1.31-1.73-3a17.28,17.28,0,0,1,8.09-10.49,3.09,3.09,0,0,0,1.91-3c0-1.9,1.44-3.58,2.62-5.92.63,4.31,1.17,8,1.71,11.74.28,1.87.54,3.75.86,5.63a2.94,2.94,0,0,0,3,2.73c6.12.07,12.25,0,18.58,0a33.84,33.84,0,0,0-1.74-5.13c-1.71-3.25-.41-5.47,2.28-7.6,1.2,3.66,2.47,7.22,3.53,10.84.46,1.56,1.22,2,2.79,1.95,4-.11,7.9,0,12.1,0a48.57,48.57,0,0,0-2-5.9c-1-2.18-.74-3.87,1-5.43a17.07,17.07,0,0,0,1.4-1.63c1.21,3.51,2.23,6.81,3.49,10a17.6,17.6,0,0,1,.93,6.66c0,1-.17,1.58-1.42,1.57-13.91,0-27.82,0-41.73-.05-3,0-4.94-1.84-5.67-5.39C511.89,299.73,511.52,296.62,511,293.43Z"
         id="path34"
         style="fill:#ffffff" />
      <path
         class="cls-4"
         d="M3.75,206.07A108.76,108.76,0,0,1,1.8,194c-.48-4.43-.79-8.87-1.24-13.3-.11-1.11-.14-1.81,1.32-1.8,9.58,0,19.17,0,28.76.05.12,0,.23.14.14.08Z"
         id="path36"
         style="fill:#ffffff" />
      <path
         class="cls-6"
         d="M728.44,252.54c1.67-4.32,3.16-8.18,4.64-12.06.63-1.64.39-2.88-1.61-3.24-.39-.08-1,0-1-.58,0-.8.67-.63,1.14-.64,2,0,4.1,0,6.15,0,.41,0,.94-.13,1.09.46s-.3.79-.72.92c-2,.62-2.66,2.37-3.34,4.07-3,7.59-6.06,15.19-9.12,22.77a26.42,26.42,0,0,1-1.63,3.34,3.11,3.11,0,0,1-2.67,1.66c-1,0-2-.19-2.29-1.28a1.66,1.66,0,0,1,1.34-2.16,7.06,7.06,0,0,0,4.3-4.05,8.21,8.21,0,0,0-.1-8.56c-2.16-3.79-3.73-7.92-5.6-11.88a12.77,12.77,0,0,0-1.7-2.79c-.46-.53-.88-1.65-2.1-.26-.63.71-2.64.31-4,.23s-2.12.25-2.05,1.89c.16,3.58.11,7.17.19,10.75,0,1.16,0,2.47,1.27,3.05S713,254,714,253.3c.46-.32.76-1.34,1.51-.73,1,.78,0,1.43-.42,2a6,6,0,0,1-4.2,2.88,4.48,4.48,0,0,1-5-3.31c-.88-2.55-.68-5.2-.69-7.83,0-1.68,0-3.37,0-5.05s.33-3.28-2.22-2.78a.51.51,0,0,1-.64-.43c-.05-.36-.12-.77.32-.93,2.87-1,4.4-3.22,5.41-5.95.27-.72.79-.48,1.07.12.09.19,0,.43.05.65.13,1.29-.6,3,.38,3.77s2.67.25,4,.27c3.29,0,6.59,0,9.89,0,.53,0,1.33-.26,1.4.6s-.73.53-1.16.66c-1.16.34-1.91.94-1.33,2.22C724.35,243.73,726.32,247.94,728.44,252.54Z"
         id="path38"
         style="fill:#ffffff" />
      <path
         class="cls-5"
         d="M562.21,237.06c0-2.71,0-5.42,0-8.13s-.7-3.36-3.27-3.72c-.55-.08-1.31.13-1.19-.8.09-.76.77-.51,1.23-.52,3.15,0,6.29,0,9.44,0,.46,0,1.12-.21,1.17.59s-.55.73-1.07.72c-3,0-3.64,2-3.65,4.37,0,4.61,0,9.22,0,13.83,0,9.06-4.28,13.64-13.35,14.26a25.32,25.32,0,0,1-5.7-.17c-7.6-1.18-11.46-5.41-11.7-13.16-.15-5.05-.07-10.1-.09-15.14,0-2.86-.6-3.53-3.49-4-.52-.08-1.11,0-1.08-.74s.72-.59,1.18-.59c3.81,0,7.62,0,11.42,0,.46,0,1.15-.22,1.21.55.08.93-.69.74-1.24.76-2.28.08-3.28,1.37-3.31,3.52-.06,5.85-.31,11.71.19,17.55.39,4.52,3.84,7.71,8.77,8.4a20.09,20.09,0,0,0,5.69,0c5.7-.84,8.66-4.13,8.84-9.91C562.27,242.18,562.2,239.62,562.21,237.06Z"
         id="path40"
         style="fill:#ffffff" />
      <path
         class="cls-5"
         d="M817.59,256.89c-4.1,0-8.2,0-12.3,0-.54,0-1.55.44-1.54-.59s1-.59,1.59-.63c3.87-.27,4.69-1.11,4.7-5q0-10.32,0-20.63c0-3.65-.35-4.06-3.85-4.81-.46-.1-.94-.16-.86-.73.11-.89.88-.58,1.39-.58,5.13,0,10.26,0,15.38,0,2.2,0,4.4,0,6.59,0,1,0,1.62.17,1.6,1.42,0,1.68.13,3.36.24,5,0,.53.18,1.06-.62,1.09-.56,0-.69-.35-.85-.8-1.63-4.47-1.89-4.65-6.72-4.66-2.05,0-4.1.05-6.15,0-1.13,0-1.55.33-1.53,1.5.06,3.29.05,6.58,0,9.87,0,1.13.33,1.58,1.5,1.53,2-.07,4,0,5.93,0,2.26,0,4.32-.31,4.66-3.14,0-.42.23-.7.68-.69.68,0,.55.56.55,1,0,2.71,0,5.42,0,8.12,0,.43,0,.93-.57,1s-.68-.4-.7-.84c-.17-2.68-1.92-3.35-4.23-3.33-2.12,0-4.25,0-6.37,0-1,0-1.49.23-1.46,1.34.09,3.14.1,6.29.15,9.43,0,2.07,1.17,3,3.17,3.12,2.41.16,4.82.12,7.24.05a5.33,5.33,0,0,0,5.52-4.37c.15-.56,0-1.57,1-1.39s.4,1.06.36,1.63c-.12,2,.42,4.8-.87,5.84s-3.9.34-5.94.36C822.72,256.91,820.15,256.89,817.59,256.89Z"
         id="path42"
         style="fill:#ffffff" />
      <path
         class="cls-7"
         d="M332.5,238.91c2.58-1.39,4.69-2.7,7.13-3.29,4.22-1,6.61.62,7.21,4.91.55,3.88-.11,7.73-.13,11.59,0,2,.3,3.52,2.75,3.55.47,0,1.14.09,1.1.78s-.66.43-1.05.43c-3.07,0-6.15,0-9.22,0-.4,0-1,.16-1-.49s.49-.64.92-.71a2.58,2.58,0,0,0,2.27-2.56,49.82,49.82,0,0,0,.27-12.44,3.16,3.16,0,0,0-3.77-3.09c-2.25.22-4.1,1.43-6,2.58-.62.38-.5,1-.5,1.57,0,3.66,0,7.32,0,11,0,1.5.24,2.82,2.14,2.95.46,0,.91.25.84.79s-.67.43-1.07.43q-4.05,0-8.12,0c-.32,0-.8.15-.9-.36s.34-.8.78-.83c2-.12,2.31-1.51,2.32-3.07q0-12.28,0-24.56a2.56,2.56,0,0,0-2.09-2.89c-.45-.11-1.12-.2-1.06-.89s.68-.68,1.15-.84c1.38-.49,2.77-.95,4.11-1.5s2-.39,1.92,1.3c-.1,4.38,0,8.77,0,13.16Z"
         id="path44"
         style="fill:#ffffff" />
      <path
         class="cls-5"
         d="M498.33,238.89c2.55-1.35,4.66-2.67,7.1-3.27,4.12-1,6.5.5,7.22,4.67.52,3.05.14,6.12,0,9.18,0,.95-.08,1.9-.14,2.84-.13,2,.46,3.31,2.72,3.36.48,0,1.17,0,1.11.74s-.79.46-1.23.47c-2.93,0-5.85,0-8.78,0-.44,0-1.13.34-1.29-.39s.57-.75,1-.81a2.57,2.57,0,0,0,2.24-2.6c.37-4.07.93-8.15.25-12.23-.45-2.67-2.13-3.77-4.71-3.1a21.18,21.18,0,0,0-4.76,2.2c-.82.44-.78,1.12-.78,1.85,0,3.66,0,7.32,0,11,0,1.56.33,2.77,2.18,2.92.44,0,.93.21.82.79s-.69.41-1.08.41c-2.64,0-5.27,0-7.91,0-.39,0-1,.17-1-.48s.43-.73.9-.77c1.78-.13,2.1-1.46,2.11-2.81,0-8.33,0-16.67,0-25a2.43,2.43,0,0,0-1.93-2.58c-.53-.15-1.3-.21-1.22-1s.85-.71,1.37-.91c5.75-2.22,5.75-2.22,5.75,3.89Z"
         id="path46"
         style="fill:#ffffff" />
      <path
         class="cls-6"
         d="M309.47,239.9c0,3.87,0,7.75,0,11.62,0,2.83.7,3.63,3.42,4.1.47.08,1.17-.13,1.2.62,0,1-.81.63-1.29.63-3.8,0-7.6,0-11.41,0-.44,0-1.15.29-1.24-.47-.1-.94.71-.7,1.23-.79,2.69-.43,3.36-1.14,3.36-3.9,0-8,0-15.93,0-23.9,0-1.28-.25-1.85-1.68-1.77-2,.12-4.09,0-6.14,0-2.78.1-3.58.79-4.27,3.47a2.94,2.94,0,0,1-.2.85c-.33.55.14,1.81-1,1.59s-.41-1.21-.36-1.84c.16-2,.42-3.92.58-5.89.09-1.15.53-1.47,1.51-.79a3.72,3.72,0,0,0,2.33.39h23.05c.51,0,1.13.16,1.51-.06,2.51-1.48,2.47.16,2.56,1.92s.35,3.49.53,5.23c0,.43.11.94-.47,1.06s-.67-.4-.82-.8c-2-5.15-2-5.15-7.53-5.15-4.93,0-4.93,0-4.93,4.83Z"
         id="path48"
         style="fill:#ffffff" />
      <path
         class="cls-6"
         d="M774.32,238.59a39.87,39.87,0,0,1,6.17-3c4.84-1.49,7.47.13,8.2,5.07.55,3.73-.19,7.43-.21,11.15,0,2.1.12,3.89,2.87,3.88.44,0,.89.22.81.8s-.56.38-.89.38h-9.44c-.36,0-.79,0-.82-.48s.31-.64.71-.68c2.08-.2,2.6-1.76,2.72-3.42a61.18,61.18,0,0,0,.14-11.16c-.36-3.3-2.19-4.51-5.32-3.46a34.64,34.64,0,0,0-3.94,1.89,1.85,1.85,0,0,0-1.1,1.93c0,3.73,0,7.46,0,11.19,0,1.5.28,2.8,2.16,3,.46,0,.88.25.82.81s-.52.41-.86.41c-2.78,0-5.56,0-8.34,0-.33,0-.8.13-.89-.37s.32-.8.77-.82c2.15-.14,2.32-1.69,2.33-3.29,0-3.66,0-7.31,0-11,0-1.67-.5-2.83-2.21-3.28-.39-.11-.93-.13-1-.72,0-.74.61-.72,1.06-.87,1.31-.44,2.69-.73,4-1.28,1.85-.8,2.37-.15,2.16,1.64A12.23,12.23,0,0,0,774.32,238.59Z"
         id="path50"
         style="fill:#ffffff" />
      <path
         class="cls-4"
         d="M579,238.56a33.3,33.3,0,0,1,6.31-3c4.88-1.44,7.69.5,8,5.58a92.31,92.31,0,0,1-.2,10.52c-.1,2.11,0,4.09,2.88,4.08.46,0,.89.22.77.8s-.56.37-.88.37h-9.45c-.33,0-.8.11-.87-.39s.43-.72.84-.77c1.81-.24,2.33-1.49,2.57-3.06a52.79,52.79,0,0,0,.3-10.95c-.25-4-2.4-5.25-6.12-3.78-.21.08-.41.18-.61.25-2.81.92-4.2,2.58-3.8,5.81a64.14,64.14,0,0,1,.06,8.55c0,1.6.25,3,2.23,3.13.47,0,.9.23.8.8s-.68.41-1.07.41c-2.64,0-5.27,0-7.91,0-.39,0-1,.19-1.06-.42s.5-.78,1-.84a2.15,2.15,0,0,0,2-2.44c0-4.17,0-8.34,0-12.51a2.4,2.4,0,0,0-1.88-2.39c-.47-.16-1.3-.09-1.22-1s.87-.66,1.35-.89a14.22,14.22,0,0,1,1.88-.6C578.61,234.71,578.61,234.71,579,238.56Z"
         id="path52"
         style="fill:#ffffff" />
      <path
         class="cls-8"
         d="M622.09,252.54c1.83-4.1,3.49-7.67,5-11.3,1-2.53.65-3.19-1.91-4-.43-.13-1.19.07-1.07-.73s.8-.49,1.27-.5c2.19,0,4.39,0,6.58,0,.48,0,1.12-.16,1.25.56s-.46.68-.84.82c-2.07.79-2.86,2.66-3.66,4.44-2.05,4.6-4,9.24-6,13.85-.32.74-.46,1.75-1.71,1.66s-1.07-1.06-1.36-1.72c-2-4.61-4-9.23-6-13.85-.88-2-1.75-4.09-4.28-4.56-.44-.08-.66-.3-.58-.74s.49-.46.85-.46c3,0,6,0,9,0,.39,0,.75.12.81.55s-.36.51-.7.64c-2.65.95-2.65,1-1.54,3.63C618.76,244.6,620.34,248.36,622.09,252.54Z"
         id="path54"
         style="fill:#ffffff" />
      <path
         class="cls-8"
         d="M449.37,244.51c0-1.17,0-2.34,0-3.51.08-1.48.14-2.87-2-2.49a.6.6,0,0,1-.78-.53.79.79,0,0,1,.62-1,8.17,8.17,0,0,0,5-5.45c.16-.45.33-.85.9-.71s.44.52.44.89a1.62,1.62,0,0,0,0,.22c.23,1.31-.72,3.09.5,3.86.95.6,2.56.14,3.87.2.86,0,1.94-.39,2,1.24s-1,1.24-1.9,1.25c-4.43.08-4.44.07-4.43,4.45,0,2.7,0,5.4.09,8.1.05,1.21,0,2.62,1.42,3.17s2.37-.23,3.4-1c.42-.32.68-1.38,1.5-.61s0,1.21-.31,1.73c-1.64,2.52-3.86,3.6-6.26,3-2.66-.68-3.37-2.88-3.64-5.18-.3-2.53-.3-5.09-.43-7.64Z"
         id="path56"
         style="fill:#ffffff" />
      <path
         class="cls-9"
         d="M662.41,239.12c.56-.07.69-.54,1-.86,2.53-3.11,2.54-3.15,6.35-2,.63.19,2.24-.26,1.47,1.5-.53,1.2-.84,2.76-2.69,1.75-2.26-1.23-4.09-1.14-5.63,1.17a4,4,0,0,0-.71,2.44q0,4.6,0,9.22c0,1.63.12,3.14,2.26,3.32a.72.72,0,0,1,.74.68c0,.65-.58.51-1,.52q-4.06,0-8.13,0c-.39,0-1,.16-1-.48s.46-.71.91-.74c1.73-.11,2.17-1.29,2.19-2.72,0-4,0-8.05,0-12.07a2.46,2.46,0,0,0-1.89-2.61c-.48-.15-1.32-.1-1.24-1s.9-.59,1.37-.87a2.2,2.2,0,0,1,.63-.19c1.54-.44,3.28-1.55,4.56-1.16C663.1,235.54,661.56,237.82,662.41,239.12Z"
         id="path58"
         style="fill:#ffffff" />
      <path
         class="cls-10"
         d="M914.65,273.91c0,8.56-.14,16.72.08,24.88.08,3.19-1.17,5.78-2.33,8.51-.25.58-.59,1-1.31.87s-.63-.89-.63-1.42c0-9.51,0-19,0-28.51a2.21,2.21,0,0,1,1.15-2.15C912.52,275.51,913.37,274.83,914.65,273.91Z"
         id="path60"
         style="fill:#ffffff" />
      <path
         class="cls-6"
         d="M680.72,235.4c.51,0,1,0,1.53,0,3.39.33,3.93.94,3.76,4.3,0,.45.3,1.14-.41,1.29s-.72-.52-.91-1a4.75,4.75,0,0,0-4.25-3.29c-1.81-.13-3.43.4-4,2.3s.41,3.32,2.05,4.14a34.15,34.15,0,0,1,5.9,3.31c2.54,2,3.3,3.86,2.57,6.42a6.44,6.44,0,0,1-5.73,4.38,11.05,11.05,0,0,1-3.71-.24,15.34,15.34,0,0,1-1.93-.39c-.84-.34-1.72,1.6-2.13.24a9.43,9.43,0,0,1-.39-5.38c.25-.83.93,0,1.19.65a5.68,5.68,0,0,0,4.31,3.67,4.68,4.68,0,0,0,4.27-1.16,3,3,0,0,0,0-4.61,18.16,18.16,0,0,0-4.46-2.76l-.59-.28c-3.83-2-5.32-4.27-4.64-7.05S676.63,235.37,680.72,235.4Z"
         id="path62"
         style="fill:#ffffff" />
      <path
         class="cls-5"
         d="M907.11,245.41c0-1.39,0-2.78,0-4.17.06-1.6.27-3.24-2.23-2.74a.57.57,0,0,1-.77-.54c0-.37,0-.7.46-.85a8.37,8.37,0,0,0,5.27-5.75.72.72,0,0,1,.83-.54c.49.05.44.48.45.83,0,.15,0,.3,0,.44.19,3.87.19,3.85,4.27,3.93.84,0,2-.43,2,1.22s-1,1.26-1.88,1.28c-4.38.07-4.39.06-4.38,4.48,0,2.7,0,5.41.06,8.11,0,1.14.06,2.47,1.3,3.06s2.37-.15,3.43-.86c.47-.32.77-1.35,1.54-.72s0,1.32-.35,1.87c-1.43,2-3.17,3.45-5.88,2.92s-3.6-2.68-3.86-5a60.51,60.51,0,0,1-.06-7Z"
         id="path64"
         style="fill:#ffffff" />
      <path
         class="cls-6"
         d="M487.42,238.5a5.38,5.38,0,0,1,0,1c-.12.52.36,1.32-.38,1.52s-.8-.65-1-1.15a4.8,4.8,0,0,0-3.72-3.06c-2-.37-4.1.61-4.5,2.24-.49,2,.51,3.4,2.27,4.25a28.34,28.34,0,0,1,6.23,3.63c1.58,1.35,2.69,2.94,2.26,5.15a6.08,6.08,0,0,1-4.25,4.87,10.66,10.66,0,0,1-5,.23c-1.23-.16-2.45-.94-3.74.08-.48.39-.88-.07-.92-.73-.09-1.39-.26-2.77-.36-4.15,0-.39-.31-.93.31-1.1s.78.4,1,.86c1.81,3.29,4.07,4.44,6.87,3.56a3.58,3.58,0,0,0,2.73-2.83,3.06,3.06,0,0,0-1.67-3.3c-1.8-1.11-3.69-2.09-5.52-3.14-2.87-1.64-4-3.59-3.55-6.19.37-2.36,2.43-4.21,5.44-4.7a13.44,13.44,0,0,1,5,.16C486.72,236,488.07,236.6,487.42,238.5Z"
         id="path66"
         style="fill:#ffffff" />
      <path
         class="cls-6"
         d="M423.76,239.88l1.37-1.7c2.61-3.17,3.78-3.41,7.45-1.62.49.23.77.39.42.9-.56.82-.26,2.34-1.83,2.32a3.87,3.87,0,0,1-1.25-.36c-3.76-1.39-6.16.31-6.16,4.37,0,2.63,0,5.27,0,7.89,0,1.83-.14,3.82,2.53,4a.63.63,0,0,1,.6.76c-.1.5-.54.39-.88.39-2.78,0-5.56,0-8.34,0-.32,0-.79.12-.88-.38s.35-.78.79-.82c2-.18,2.24-1.5,2.22-3.12,0-3.65-.09-7.31,0-11,.05-1.75-.34-3-2.2-3.46-.42-.1-.9-.22-.88-.8s.51-.64.93-.77c1.53-.48,3.08-.91,4.58-1.46,1.22-.45,1.58-.06,1.51,1.15C423.71,237.25,423.76,238.26,423.76,239.88Z"
         id="path68"
         style="fill:#ffffff" />
      <path
         class="cls-4"
         d="M715.17,274.29v4.82c0,7-.1,14,.06,21.05.06,2.83-1.44,5-2.34,7.41-.22.61-.73.68-1.26.59-.74-.12-.55-.76-.55-1.22,0-3.43,0-6.87,0-10.3,0-5.41.25-10.84-.09-16.22C710.77,277.1,712.26,275.51,715.17,274.29Z"
         id="path70"
         style="fill:#ffffff" />
      <path
         class="cls-11"
         d="M761.5,244.84c0,2.55,0,5.11,0,7.66,0,1.71.15,3.28,2.37,3.47.39,0,.76.22.69.66s-.47.5-.84.5h-8.33c-.39,0-.8-.09-.88-.48-.13-.63.42-.66.84-.72,1.8-.24,2.15-1.5,2.15-3,0-3.79,0-7.59,0-11.38,0-1.56-.38-2.73-2.07-3.1-.45-.1-.9-.27-.94-.77s.51-.79,1-1a1.29,1.29,0,0,0,.21-.05c5.81-2.1,5.81-2.1,5.81,4Z"
         id="path72"
         style="fill:#ffffff" />
      <path
         class="cls-12"
         d="M605.9,244.51c0,2.63,0,5.27,0,7.9,0,1.62.17,3.14,2.31,3.29.42,0,.91.24.79.83s-.58.35-.9.35c-2.78,0-5.56,0-8.34,0-.35,0-.79.07-.86-.44a.66.66,0,0,1,.63-.75c2.44-.19,2.35-2,2.36-3.69,0-3.51,0-7,0-10.53,0-1.64-.33-2.87-2.11-3.3-.41-.1-.91-.18-.93-.77s.61-.71,1-.92a2.86,2.86,0,0,1,.41-.15c5.57-1.89,5.57-1.89,5.57,4Z"
         id="path74"
         style="fill:#ffffff" />
      <path
         class="cls-12"
         d="M441.51,244.55c0,2.57,0,5.13,0,7.69,0,1.66.06,3.33,2.37,3.45.46,0,.88.27.73.85s-.59.34-.91.34c-2.78,0-5.57,0-8.35,0-.35,0-.79.05-.84-.45a.67.67,0,0,1,.65-.74c2.28-.16,2.35-1.77,2.35-3.47,0-3.66,0-7.32,0-11,0-1.48-.34-2.57-1.92-3-.45-.12-1.1-.18-1.11-.88s.78-.78,1.28-1c1.3-.46,2.67-.76,4-1.26s1.84-.22,1.8,1.27C441.45,239.14,441.51,241.85,441.51,244.55Z"
         id="path76"
         style="fill:#ffffff" />
      <path
         class="cls-7"
         d="M697.15,244.43c0,2.55,0,5.11,0,7.66,0,1.7,0,3.49,2.47,3.61a.67.67,0,0,1,.68.71c0,.5-.46.48-.82.48H691c-.35,0-.79,0-.79-.5a.7.7,0,0,1,.72-.68c2.26-.18,2.33-1.75,2.31-3.47,0-3.57-.07-7.15,0-10.72,0-1.66-.3-2.86-2.07-3.32-.45-.12-1.08-.19-1-.93.07-.56.59-.55,1-.71,6-2.48,6-2.48,6,3.94Z"
         id="path78"
         style="fill:#ffffff" />
      <path
         class="cls-4"
         d="M468.52,244.66V253c0,1.39.44,2.45,2,2.65.51.07,1.11.1,1,.84s-.68.4-1.06.4c-2.64,0-5.27,0-7.91,0-.39,0-1,.19-1.06-.42s.5-.78,1-.84c1.6-.16,2-1.27,2-2.63,0-4.09,0-8.18,0-12.28,0-1.57-1-2.15-2.24-2.57-.39-.13-.9-.14-.89-.76s.46-.66.88-.78l.21-.08c6-2.39,6-2.39,6,4C468.51,241.88,468.51,243.27,468.52,244.66Z"
         id="path80"
         style="fill:#ffffff" />
      <path
         class="cls-10"
         d="M639.44,316.1a17.23,17.23,0,0,1-3.07,3.59,21.11,21.11,0,0,1-4.24-3.34,18,18,0,0,1,3-3.7C635.54,312.63,639.45,315.72,639.44,316.1Z"
         id="path82"
         style="fill:#ffffff" />
      <path
         class="cls-13"
         d="M464.13,274.87a18.25,18.25,0,0,1,4.3,3.24,16,16,0,0,1-3.12,3.79,22.38,22.38,0,0,1-4.16-3.39A14.55,14.55,0,0,1,464.13,274.87Z"
         id="path84"
         style="fill:#ffffff" />
      <path
         class="cls-14"
         d="M626.27,312.66a21.75,21.75,0,0,1,4.25,3.32,15.78,15.78,0,0,1-2.93,3.7c-.48,0-4.38-3-4.37-3.41A15.74,15.74,0,0,1,626.27,312.66Z"
         id="path86"
         style="fill:#ffffff" />
      <path
         class="cls-14"
         d="M541.56,316c0,.44-2.69,3.84-2.93,3.67q-2.24-1.57-4.35-3.29c-.21-.17,2.75-3.77,3.1-3.79A19.3,19.3,0,0,1,541.56,316Z"
         id="path88"
         style="fill:#ffffff" />
      <path
         class="cls-10"
         d="M754,275a22,22,0,0,1,4.17,3.31,16.66,16.66,0,0,1-3,3.63,21.21,21.21,0,0,1-4.33-3.18A14.56,14.56,0,0,1,754,275Z"
         id="path90"
         style="fill:#ffffff" />
      <path
         class="cls-10"
         d="M528.39,312.65a21.39,21.39,0,0,1,4.27,3.33,16.07,16.07,0,0,1-2.95,3.71,21.11,21.11,0,0,1-4.27-3.33A16.91,16.91,0,0,1,528.39,312.65Z"
         id="path92"
         style="fill:#ffffff" />
      <path
         class="cls-10"
         d="M857.69,312.65a21.46,21.46,0,0,1,4.16,3.41,13.66,13.66,0,0,1-3,3.61,18.47,18.47,0,0,1-4.15-3.38A14.52,14.52,0,0,1,857.69,312.65Z"
         id="path94"
         style="fill:#ffffff" />
      <path
         class="cls-10"
         d="M557.14,282.57a20.09,20.09,0,0,1-2.94,3.72,22.16,22.16,0,0,1-4.26-3.33,17.53,17.53,0,0,1,3-3.69C553.41,279.24,557.15,282.17,557.14,282.57Z"
         id="path96"
         style="fill:#ffffff" />
      <path
         class="cls-10"
         d="M674.37,319.71a20,20,0,0,1-4.13-3.43,14,14,0,0,1,3-3.64,18.13,18.13,0,0,1,4.12,3.43A12.78,12.78,0,0,1,674.37,319.71Z"
         id="path98"
         style="fill:#ffffff" />
      <path
         class="cls-12"
         d="M516,275a17.13,17.13,0,0,1,4.08,3.35,13.12,13.12,0,0,1-3,3.55c-.51,0-4.12-3-4.07-3.37A14.44,14.44,0,0,1,516,275Z"
         id="path100"
         style="fill:#ffffff" />
      <path
         class="cls-10"
         d="M511.13,278.31a13,13,0,0,1-3,3.6,19.37,19.37,0,0,1-4.05-3.23,14.7,14.7,0,0,1,2.9-3.75A20.23,20.23,0,0,1,511.13,278.31Z"
         id="path102"
         style="fill:#ffffff" />
      <path
         class="cls-14"
         d="M749.13,278.33a14.76,14.76,0,0,1-3,3.59c-.47,0-4.13-3-4.1-3.36a15.7,15.7,0,0,1,3-3.55A18.09,18.09,0,0,1,749.13,278.33Z"
         id="path104"
         style="fill:#ffffff" />
      <path
         class="cls-11"
         d="M450.34,322.84a12.88,12.88,0,0,1-2.59,3.38,18.43,18.43,0,0,1-3.74-2.91c-.09-.45,2.27-3.54,2.69-3.53A19.62,19.62,0,0,1,450.34,322.84Z"
         id="path106"
         style="fill:#ffffff" />
      <path
         class="cls-12"
         d="M442.32,323c-.06.55-2.49,3.33-2.75,3.13-1-.77-2.29-1.3-2.81-2.56-.17-.41,2.25-3.35,2.6-3.32A9.56,9.56,0,0,1,442.32,323Z"
         id="path108"
         style="fill:#ffffff" />
      <path
         class="cls-15"
         d="M466.21,227.48c-1.21-.18-2.51-.55-2.47-2.12s1.17-1.89,2.47-1.91,2.59.59,2.58,2.05S467.59,227.38,466.21,227.48Z"
         id="path110"
         style="fill:#ffffff" />
      <path
         class="cls-16"
         d="M603.75,227.48c-1.35-.12-2.63-.49-2.63-2,0-1.4,1.11-2,2.42-2s2.57.39,2.58,2S605,227.29,603.75,227.48Z"
         id="path112"
         style="fill:#ffffff" />
      <path
         class="cls-17"
         d="M695.07,227.5c-1.34-.18-2.54-.52-2.57-2s1.14-2.06,2.52-2,2.41.43,2.46,1.9C697.53,227,696.24,227.28,695.07,227.5Z"
         id="path114"
         style="fill:#ffffff" />
      <path
         class="cls-18"
         d="M439.35,227.49c-1.28-.16-2.54-.42-2.55-2.07,0-1.5,1.11-1.94,2.38-2s2.55.36,2.57,2S440.59,227.3,439.35,227.49Z"
         id="path116"
         style="fill:#ffffff" />
      <path
         class="cls-17"
         d="M759.22,223.58c1.26.24,2.56.53,2.5,2.17s-1.27,1.89-2.48,1.89-2.59-.52-2.53-2.09C756.76,224.14,758,223.77,759.22,223.58Z"
         id="path118"
         style="fill:#ffffff" />
      <path
         class="cls-2"
         d="M478,112.17c-6.17-8.16-14.36-13.86-23.25-18.68-4-2.15-8.16-3.94-12.55-5.91,1.78-.61,3.24-1.08,4.67-1.62s2.87-1.1,4.27-1.71c14.19-6.26,23.9-16,24.61-32.4.53-12.11-2.88-22.78-11.87-31.34-7.34-7-16.29-11-25.83-13.88C423.45,2.27,408.47.88,393.37.39l-5.7,0L381,.39h-6.15L328.36,1.68c-10.24.29-20.48.61-30.72.86-1.41,0-2.05.3-2,1.94.14,3.36.12,6.73,0,10.09-.05,1.52.51,1.84,1.88,1.77a45.2,45.2,0,0,1,10.7.81c7.55,1.48,12.79,5.55,14.63,13.29a35.17,35.17,0,0,1,1,8.25q0,62.24,0,124.48a55.5,55.5,0,0,1-.38,6.56c-1,8.88-5.87,14.13-14.61,16.09a34.89,34.89,0,0,1-10.47.83c-2.34-.2-2.83.65-2.69,2.78a71.9,71.9,0,0,1,0,8.56c-.12,2,.43,2.55,2.49,2.54,33.1-.2,66.21.32,99.31-.33,13.75-.27,27.49-1.11,41-4.34,15.14-3.65,28.27-10.63,38-23.11C490.45,154.9,491.1,129.57,478,112.17ZM371.05,13.06c9.28.13,18.58-.28,27.79,1.41A54.31,54.31,0,0,1,413.43,19c8.45,4.21,13.64,11.07,15.85,20.15a49.43,49.43,0,0,1,.48,21.75c-2.19,10.81-9,17.11-19.52,19.9-8.13,2.16-16.43,2.66-24.78,2.78-4.9.07-9.81-.08-14.71.06-1.84.06-2.13-.61-2.12-2.23.07-11,0-22.09,0-33.13s.06-21.95-.06-32.92C368.59,13.39,369.19,13,371.05,13.06Zm65.4,142.86c-4.14,16.2-14.92,25.45-31.2,28.51a60.77,60.77,0,0,1-18.36.41c-10.95-1.28-15.79-6.14-17.27-17.23a110.4,110.4,0,0,1-1-15.09c0-7.83,0-15.66,0-23.48,0-10.17,0-20.34,0-30.51,0-1.75.48-2.18,2.19-2.16,10.24.09,20.49-.16,30.65,1.55a68,68,0,0,1,14.13,3.85c9.7,3.9,16.28,10.76,19.49,20.65A59.45,59.45,0,0,1,436.45,155.92Z"
         id="path120"
         style="fill:#ffffff" />
      <path
         class="cls-4"
         d="M400.51,302a35.94,35.94,0,0,0-7.73-8.63c-2.73-2.15-5.08-2-7.24.72a54.91,54.91,0,0,0-3.87,5.58,6.66,6.66,0,0,1-6.09,3.21c-2.78,0-5.57-.07-8.35,0-1.55.05-2.22-.3-2.59-2-1.86-8.5-7.53-12.14-15.57-10.14A21,21,0,0,0,342,294.2a33.32,33.32,0,0,0-8,7.77,2.48,2.48,0,0,1-2.92.88c-1.08-.26-.48-1.34-.56-2a26.44,26.44,0,0,1,0-2.87c-1.7,1.58-4.19,1.67-4,4.41.07.82-.88.56-1.41.56-3.66,0-7.32,0-11,0a1.82,1.82,0,0,1-2-1.52c-.74-2.13-1.54-4.23-2.34-6.41-3.56,3.46-3.52,3.46-1.62,7.69.64,1.43,1.74,2.73,1.52,4.48-.87,6.62-5.2,10.78-11.87,11.37-.72.07-1.45.1-2.18.17-.46.05-1.12-.23-1.22.54s.46.87.91,1.08c1.12.54,2.23,1.1,3.38,1.54,5.34,2,9.58.22,11.83-5a25,25,0,0,0,1.88-7.18c.13-1.24.59-1.64,1.78-1.56s2.49,0,3.73,0c1.69,0,3.38.09,5.05,0s3.32.48,4.89-1.09,2.33,1.3,4.2,1.26c15.52-.25,31-.15,46.57-.13,1.19,0,2.57.11,3.42-.52,1.93-1.43,3.5-1.18,5.73-.44,3.81,1.26,7.94,1,12,.94.49,0,1.2.12,1.2-.59C401,305.74,401.63,303.75,400.51,302Zm-41.45.9c-7.23,0-14.47,0-21.7,0,4.54-5.15,9.89-8.25,16.94-6.95,3.13.57,4.94,2.56,5.81,5.57C360.42,302.66,360.18,303,359.06,302.94Zm27.35-1.4c-.79-.1-1.12-.45-1-1.31a3.2,3.2,0,0,1,4.55-2.44,15.9,15.9,0,0,1,5.82,4.91Z"
         id="path122"
         style="fill:#ffffff" />
      <path
         class="cls-4"
         d="M635.86,290.15c-3.5,3-3.7,3.58-2.47,7.29.44,1.31.79,2.66,1.34,3.93s.18,1.6-1.14,1.58c-4.39-.06-8.79-.15-13.18,0-2.1.08-2.95-.45-3.38-2.63-1.5-7.54-7-11.08-14.5-9.69a17.26,17.26,0,0,0-4.34,1.48,39.83,39.83,0,0,0-7,4.62c0-4.3.09-8.23,0-12.15-.08-2.84,0-5.54,2.32-7.62.29-.26.81-.79.47-1.07a18.79,18.79,0,0,0-4.58-3.34c-1.1-.45-1.51,1.41-2.26,2.19s-1.35,1.45-.07,2.31c.26.17.31.79.31,1.21,0,7.17,0,14.34,0,21.51,0,2.05-1.25,3.12-3.31,3.12-3.52,0-7-.07-10.55,0-1.59.05-2-.52-1.93-2,.06-7.32,0-14.63,0-21.95v-4.54c-1.67,1.08-4.1,1.3-4.13,3.26-.13,8.63-.14,17.27.07,25.89.08,3.4,1.71,4.57,5.17,4.57,21.82,0,43.64,0,65.46.05,1.74,0,2-.58,2-2.13C640.29,300.37,637.09,295.61,635.86,290.15Zm-24.28,12.79c-7.23,0-14.46,0-22.35,0,5.28-5.16,10.68-8.24,17.72-6.95a6.9,6.9,0,0,1,5.68,5.41C612.8,302.27,612.87,303,611.58,302.94Z"
         id="path124"
         style="fill:#ffffff" />
      <path
         class="cls-4"
         d="M822.12,302.51c-2.4-3.67-5.08-7.2-8.84-9.63-2.39-1.54-4-1.23-6.06.82a27.48,27.48,0,0,0-3.87,5.3c-1,1.65-2.19,3.25-4.23,3.56a58,58,0,0,1-13.56.13c-1.41-.11-2-.69-.67-2.06,2.16-2.23,2.1-4.7-.29-6.43-4.67-3.37-10.22-3.84-12.81,3.17-.13.33-.21.68-.37,1.23,1.89.12,3.59-.29,5.21.38,1.17.49,2.17,1.38,2,2.57-.11,1-1.44.94-2.35,1-6,.65-12,.23-18,.32-3.29,0-4.12-.74-4.58-4-.75-5.24-1.51-10.47-2.34-16.12-1.18,2.22-2.52,4-2.75,6.05a3.22,3.22,0,0,1-1.68,2.7c-3.22,2.1-6.22,4.45-7.48,8.29-1.82,5.59-2,4.66,3.27,5.64,4.53.85,4.54.79,6.51-3.31,0-.06,0-.14,0-.35-1.64-.33-3.32-.8-5-1-1.51-.16-1.44-.76-.91-1.83a11.43,11.43,0,0,1,5.59-5.57,3.44,3.44,0,0,1,.29.69c.37,2.53.74,5.06,1.08,7.6.61,4.46,2.82,6.43,7.28,6.43,6.15,0,12.3-.05,18.45,0,1.52,0,2.45-.71,3.65-1.43s1.86,1.58,3.64,1.5c5.62-.27,11.27-.08,16.9-.12,1.09,0,2.45.07,3.2-.52,1.95-1.53,3.55-1.08,5.74-.4,3.91,1.22,8.1,1,12.21.93.42,0,1,.07,1-.52C822.41,305.93,823,303.92,822.12,302.51Zm-14.55-1c-.4-.05-.86,0-1-.65-.27-1.62,2.39-4.09,3.91-3.45a14.82,14.82,0,0,1,6.62,5.28C813.73,302.27,810.65,301.9,807.57,301.5Z"
         id="path126"
         style="fill:#ffffff" />
      <path
         class="cls-4"
         d="M901.52,243.86c-.44-7.07-6.43-10.4-12.63-7-.91.49-1.66,1.33-2.88,1.55a10,10,0,0,1,0-1.25c.31-2.09-.39-2.64-2.39-1.8-1.32.57-2.94,1.42-4.14,1.09-2.63-.71-5.21-.13-7.78-.38-.42-.05-1-.08-1,.53s.48.58.89.66c1.5.3,2.51,1,1.86,2.7-1.51,4.07-3,8.12-4.74,12.62-2.07-4.4-3.92-8.35-5.8-12.29-.75-1.58-.61-2.7,1.36-3,.42-.07,1-.06.88-.69s-.63-.51-1.07-.51q-4.07,0-8.13,0a1.22,1.22,0,0,0-1,.27c-1.82,1.79-3.74,1.66-5.82.41a9.83,9.83,0,0,0-11.28.9c-4,3.29-3.72,8.58.49,11.54.37.26,1,.33,1,.83-1.61,1.43-4.61,1.38-4.25,4.46.28,2.39,2.44,2.54,4.42,3.16-1.34,1.32-2.64,2.49-3.78,3.79-2.14,2.45-1.77,4.61,1,6.36,4.87,3.09,15.1,1.07,18.46-3.66,2.68-3.78,1.2-7.57-3.3-8.56-3.38-.74-6.85-.54-10.24-1.11-1.19-.2-3.18,0-3-1.72s2.07-2,3.63-2.24a8,8,0,0,1,1.09.08c7.11.05,10.37-3.82,9-10.66,4.51-.19,4.51-.19,4.9-1.58a7.51,7.51,0,0,1,2,3.08c1.88,4,3.59,8.16,5.67,12.09,1.4,2.66,1.66,5,.21,7.73-1.06,2-2,3.84-4.37,4.54-1,.31-1.9,1-1.46,2.3s1.46,1.3,2.55,1.18a3.63,3.63,0,0,0,2.87-2.45c1.15-2.6,2.23-5.23,3.3-7.87,2.57-6.36,5.1-12.74,7.71-19.08.5-1.22,1.42-2.67,2.85-2.18s3.42.93,3.35,3.57c-.2,7.75-.08,15.51-.07,23.27,0,1.59-.21,3-2.21,3.13-.46,0-.88.24-.76.82s.56.39.9.39c2.71,0,5.42,0,8.13,0,.41,0,1,.14,1.06-.47s-.44-.69-.85-.76c-1.12-.16-2.06-.62-2.08-1.85-.07-3,0-6.09,0-9.21,2.29.49,4.34,1,6.5.57C898.38,255.88,901.94,250.65,901.52,243.86Zm-57.16,13.88a53.32,53.32,0,0,1,6.3.74c3,.79,3.89,3.48,1.89,5.89s-4.75,2.94-7.16,3.06a10,10,0,0,1-6.49-1.8c-1.82-1.38-2-2.85-.74-4.73C839.65,258.73,841.47,257.33,844.36,257.74Zm3.84-10.45a4.27,4.27,0,0,1-4.67,2.17c-2.69-.33-4.47-3.06-4.48-6.87,0-3.14,1.47-5.4,3.91-5.84a4.31,4.31,0,0,1,4.76,2A8.32,8.32,0,0,1,848.2,247.29ZM897.71,250c-1.27,5.36-5.92,7-10.41,3.74a2.63,2.63,0,0,1-1.32-2.52c.12-1.6,0-3.21,0-4.82a22.42,22.42,0,0,0,0-2.84c-.32-2.46.35-4.14,3-5s5-.47,6.77,1.53C898.29,243.05,898.55,246.49,897.71,250Z"
         id="path128"
         style="fill:#ffffff" />
      <path
         class="cls-4"
         d="M476.72,296a21.18,21.18,0,0,0-4.41-9.66c-2.24-2.54-5.2-2.65-7.15-.14a13.88,13.88,0,0,0-3.3,9.52c.14,2.46,1.43,3.65,3.92,3.76a9.16,9.16,0,0,0,4-1c1-.43,1.73-2.14,2.8-1.51s.74,2.26,1.15,3.42c0,.07,0,.15,0,.22.46,1.71.06,2.4-2,2.38-9.14-.12-18.29-.05-27.44-.06-1,0-1.86,0-2.45,1.21-1.9,3.93-2,3.89,2.07,5.54.39.16.76.35,1.26.59a11.42,11.42,0,0,1-4.8,3.11c-6.84,2.53-12.61-.13-13.94-6.45a33.51,33.51,0,0,1-.25-4.15c0-.5.56-1.26-.33-1.46s-.82.6-1,1.14a17.73,17.73,0,0,0-.09,10.57,9,9,0,0,0,8,6.74c6.13.79,13.19-3.5,16.28-10.06a2.26,2.26,0,0,1,2.44-1.53c7.17.06,14.34,0,21.52,0,2.88,0,4.12-1.22,4.25-4.11A30.3,30.3,0,0,0,476.72,296ZM468,294c-.92,0-2.16.07-2.47-.9s.45-1.93,1.3-2.55c1-.75,1.59.25,2.19.77a15.65,15.65,0,0,1,1.52,1.81A4.24,4.24,0,0,1,468,294Z"
         id="path130"
         style="fill:#ffffff" />
      <path
         class="cls-4"
         d="M408.58,239.46c-.9-.45-1.83-.81-2.89-1.27.91-.41,1.73-.71,2.5-1.12a6.74,6.74,0,0,0,3.69-4.11c1.12-4-1-7.4-5.72-8.5-6.71-1.58-13.56-.66-20.35-.86-.48,0-.87.13-.84.72s.58.46,1,.55c2.9.64,3.52,1.36,3.52,4.31q0,11.31,0,22.61c0,2.62-.67,3.37-3.21,3.82-.52.09-1.37-.15-1.25.77s.93.49,1.43.49q7.47,0,14.93,0a18,18,0,0,0,5.84-.9c3.76-1.33,6.15-3.89,6.58-7.95C414.19,244.24,412.41,241.39,408.58,239.46Zm-13.94-13.91c2-1.11,4.84-.54,7.29-.17,4.2.63,6.17,3.85,5.14,8a4.78,4.78,0,0,1-3.61,3.72,10.6,10.6,0,0,1-3,.37c-2-.06-4.71.91-5.85-.41-1-1.12-.2-3.74-.2-5.7S393.32,226.3,394.64,225.55Zm7.29,29.53a13.83,13.83,0,0,1-2.39.24c-3.64,0-5.06-1.29-5.27-4.91-.09-1.67,0-3.36,0-5h0c0-1.61.07-3.21,0-4.81-.07-1.18.38-1.52,1.5-1.46,1.89.11,3.8,0,5.68.18a7.62,7.62,0,0,1,7.27,7.37A8.09,8.09,0,0,1,401.93,255.08Z"
         id="path132"
         style="fill:#ffffff" />
      <path
         class="cls-8"
         d="M639.41,243.17c4,.12,7.91,0,11.86,0,.77,0,1.54.06,1.23-1.15-1.09-4.2-6.64-7.52-10.92-6.5s-7.17,4.62-7.73,9.58,1.65,9.78,5.37,11.62c4.49,2.23,11-.31,12.76-5.5-1.05.83-1.66,1.34-2.29,1.81-4.44,3.25-9.65,1.7-11.55-3.46a15.56,15.56,0,0,1-.79-4.28C637.24,243.75,637.69,243.11,639.41,243.17Zm3.25-6.46a5.09,5.09,0,0,1,5,3.84c.29.92.41,1.52-.91,1.5-2.9-.06-5.8,0-8.72,0C638.51,238.75,640.19,236.88,642.66,236.71Z"
         id="path134"
         style="fill:#ffffff" />
      <path
         class="cls-8"
         d="M357.19,243.21c2,0,4.09,0,6.14,0s4.24,0,6.36,0c.89,0,1.44-.14,1.18-1.21-1.09-4.28-6.74-7.52-11.13-6.38-4.9,1.27-7.83,5.93-7.5,11.92.25,4.64,2.76,8.44,6.36,9.62,3.91,1.29,8.17-.28,11.16-4.12.26-.34,1-.66.34-1.21-.47-.39-.74.23-1,.46a9.21,9.21,0,0,1-5.05,2.42c-6.12.52-8.81-5.82-8.12-10.74C356,243.09,356.62,243.22,357.19,243.21Zm-.58-2.79a5.3,5.3,0,0,1,4.65-3.72,5.08,5.08,0,0,1,4.69,3.63c.35,1,.45,1.86-1.12,1.72-1.16-.1-2.33,0-3.5,0s-2.34-.06-3.5,0C356.49,242.14,356.14,241.7,356.61,240.42Z"
         id="path136"
         style="fill:#ffffff" />
    </g>
  </g>
</svg>
