<svg width="548" height="232" viewBox="0 0 548 232" fill="none" xmlns="http://www.w3.org/2000/svg">
<path d="M73.0884 57.7197C84.828 57.7197 93.2224 59.6132 98.2717 63.4002C103.321 67.1871 105.846 71.7946 105.846 77.2226C105.846 82.5243 104.015 87.5105 100.355 92.1811C96.82 96.7254 91.8339 98.9976 85.396 98.9976C78.9582 98.9976 75.7393 96.2836 75.7393 90.8557C75.7393 90.3507 75.8655 89.3409 76.118 87.8261C79.5263 87.8261 82.4927 86.5006 85.0173 83.8498C87.542 81.1989 88.8043 78.2956 88.8043 75.1398C88.8043 71.9839 87.2895 69.3962 84.26 67.3765C81.2304 65.3568 77.5696 64.3469 73.2778 64.3469C65.9563 64.3469 59.8971 66.556 55.1003 70.9741C50.3035 75.3922 47.9051 80.5677 47.9051 86.5006C47.9051 89.6564 49.0412 93.1278 51.3134 96.9148C53.5855 100.702 55.7315 103.731 57.7512 106.004C59.8972 108.149 63.3054 111.431 67.976 115.85C72.7728 120.142 75.613 122.729 76.4967 123.613C86.0903 133.207 90.8871 143.684 90.8871 155.045C90.8871 166.279 85.7747 176.125 75.5499 184.583C65.3251 192.914 53.0806 197.08 38.8164 197.08C27.203 197.08 17.7987 195.187 10.6035 191.4C3.5345 187.613 0 181.68 0 173.601C0 169.183 1.45167 165.143 4.35501 161.483C7.25835 157.822 11.3609 155.991 16.6626 155.991C22.0906 155.991 25.7514 157.885 27.6448 161.672C23.2267 165.206 21.0177 169.498 21.0177 174.548C21.0177 179.471 22.6587 183.321 25.9407 186.098C29.349 188.749 33.7671 190.074 39.1951 190.074C46.769 190.074 53.3962 187.36 59.0766 181.932C64.8833 176.504 67.7867 169.688 67.7867 161.483C67.7867 153.151 62.3587 143.242 51.5027 131.755C51.3765 131.502 49.1674 129.167 44.8755 124.749C40.5836 120.205 36.986 115.597 34.0827 110.927C31.3056 106.256 29.917 100.702 29.917 94.2639C29.917 83.2817 34.2089 74.4455 42.7927 67.7552C51.3765 61.0649 61.4751 57.7197 73.0884 57.7197Z" fill="#10143A"/>
<path d="M171.443 144.82C172.2 144.82 172.579 146.019 172.579 148.418C172.579 150.816 171.506 153.782 169.36 157.317C167.34 160.851 165.699 163.565 164.437 165.459C163.301 167.226 161.281 170.129 158.378 174.169C155.475 178.208 152.95 181.112 150.804 182.879C148.658 184.646 145.944 186.729 142.662 189.127C137.108 193.167 129.849 195.187 120.887 195.187C112.051 195.187 105.613 192.977 101.573 188.559C97.6603 184.015 95.7037 178.145 95.7037 170.95C95.7037 157.696 100.374 145.577 109.715 134.595C119.183 123.487 130.291 117.932 143.041 117.932C148.721 117.932 153.266 119.447 156.674 122.477C160.082 125.38 161.786 128.915 161.786 133.08C161.786 137.12 160.65 140.654 158.378 143.684C156.106 146.713 153.518 148.228 150.615 148.228C144.934 148.228 142.094 145.893 142.094 141.222C142.094 139.707 143.672 138.256 146.828 136.867C148.09 136.362 149.226 135.416 150.236 134.027C151.246 132.638 151.751 130.808 151.751 128.536C151.751 125.254 149.984 123.613 146.449 123.613C138.875 123.613 131.364 129.104 123.917 140.086C116.469 151.068 112.745 161.735 112.745 172.086C112.745 182.311 117.226 187.423 126.189 187.423C138.686 187.423 150.867 177.766 162.733 158.453C165.131 154.666 167.088 151.447 168.603 148.796C170.244 146.145 171.191 144.82 171.443 144.82Z" fill="#10143A"/>
<path d="M253.696 155.234C238.169 181.364 225.041 194.429 214.311 194.429C206.863 194.429 203.14 190.137 203.14 181.553C203.14 171.581 207.116 157.38 215.068 138.95C216.836 134.28 217.719 131.061 217.719 129.293C217.719 126.769 216.583 125.506 214.311 125.506C212.796 125.506 210.209 126.39 206.548 128.157C203.013 129.925 199.605 132.512 196.323 135.921C193.041 139.329 190.264 143.305 187.992 147.849C185.846 152.268 184.079 156.118 182.69 159.4C181.428 162.682 180.102 166.721 178.714 171.518C177.325 176.189 176.063 180.039 174.927 183.068C173.917 185.972 172.844 189.38 171.708 193.293H153.341C156.749 184.583 161.609 170.697 167.921 151.636C174.359 132.449 179.85 117.428 184.394 106.572C188.938 95.5894 193.357 86.3744 197.648 78.9267C202.067 71.3528 207.053 65.0412 212.607 59.9919C218.287 54.9426 224.22 52.418 230.406 52.418C236.717 52.418 239.873 55.3844 239.873 61.3173C239.873 65.483 238.169 70.9741 234.761 77.7906C227.439 92.1811 215.195 108.844 198.027 127.779C204.844 122.855 210.209 119.637 214.122 118.122C218.161 116.607 222.011 115.85 225.672 115.85C232.867 115.85 236.465 119.005 236.465 125.317C236.465 127.842 236.023 130.177 235.139 132.323C234.256 134.469 233.246 136.93 232.11 139.707C231.1 142.485 230.216 144.757 229.459 146.524C228.828 148.291 227.944 150.69 226.808 153.719C225.672 156.749 224.788 159.337 224.157 161.483C222.516 166.784 221.696 171.013 221.696 174.169C221.696 177.325 222.769 178.903 224.915 178.903C232.489 178.903 241.956 167.92 253.317 145.956C253.696 145.072 254.137 144.631 254.642 144.631C255.273 144.631 255.589 145.83 255.589 148.228C255.589 150.5 254.958 152.836 253.696 155.234ZM230.784 57.1517C226.366 57.1517 220.56 64.1576 213.364 78.1693C206.295 92.1811 199.353 108.276 192.536 126.453C209.83 106.13 221.633 89.4671 227.944 76.4652C231.479 68.5126 233.246 63.337 233.246 60.9386C233.246 58.414 232.425 57.1517 230.784 57.1517Z" fill="#10143A"/>
<path d="M338.046 146.713C338.424 145.956 338.803 145.577 339.182 145.577C339.939 145.577 340.318 146.524 340.318 148.418C340.318 154.477 337.856 159.526 332.933 163.565C328.136 167.479 323.592 169.435 319.3 169.435C315.135 169.435 311.537 168.236 308.507 165.838C303.963 174.8 298.535 181.869 292.223 187.045C286.038 192.22 278.022 194.808 268.176 194.808C261.865 194.808 256.689 192.914 252.65 189.127C248.736 185.214 246.78 179.344 246.78 171.518C246.78 163.565 248.547 155.423 252.082 147.092C255.742 138.635 261.17 131.376 268.366 125.317C275.687 119.258 283.829 116.228 292.791 116.228C307.813 116.228 315.324 124.181 315.324 140.086C315.324 146.145 313.998 152.52 311.348 159.21C313.241 161.861 315.955 163.187 319.49 163.187C326.054 163.187 332.239 157.696 338.046 146.713ZM306.425 134.974C305.92 128.283 302.89 124.938 297.336 124.938C288.626 124.938 280.105 133.396 271.774 150.311C267.229 159.652 264.957 168.11 264.957 175.684C264.957 183.258 268.239 187.234 274.803 187.613C280.231 187.613 285.218 184.772 289.762 179.092C294.433 173.285 298.346 166.911 301.502 159.968C297.21 156.307 295.064 151.7 295.064 146.145C295.064 142.737 295.947 140.023 297.715 138.003C299.608 135.984 302.133 134.974 305.288 134.974H306.425Z" fill="#10143A"/>
<path d="M423.104 146.713C423.483 145.956 423.862 145.577 424.241 145.577C424.998 145.577 425.377 146.524 425.377 148.418C425.377 154.477 422.915 159.526 417.992 163.565C413.195 167.479 408.651 169.435 404.359 169.435C400.193 169.435 396.596 168.236 393.566 165.838C389.022 174.8 383.594 181.869 377.282 187.045C371.097 192.22 363.081 194.808 353.235 194.808C346.923 194.808 341.748 192.914 337.708 189.127C333.795 185.214 331.839 179.344 331.839 171.518C331.839 163.565 333.606 155.423 337.14 147.092C340.801 138.635 346.229 131.376 353.424 125.317C360.746 119.258 368.888 116.228 377.85 116.228C392.872 116.228 400.383 124.181 400.383 140.086C400.383 146.145 399.057 152.52 396.406 159.21C398.3 161.861 401.014 163.187 404.548 163.187C411.112 163.187 417.298 157.696 423.104 146.713ZM391.483 134.974C390.978 128.283 387.949 124.938 382.395 124.938C373.685 124.938 365.164 133.396 356.833 150.311C352.288 159.652 350.016 168.11 350.016 175.684C350.016 183.258 353.298 187.234 359.862 187.613C365.29 187.613 370.276 184.772 374.821 179.092C379.491 173.285 383.404 166.911 386.56 159.968C382.268 156.307 380.122 151.7 380.122 146.145C380.122 142.737 381.006 140.023 382.773 138.003C384.667 135.984 387.191 134.974 390.347 134.974H391.483Z" fill="#10143A"/>
<path d="M488.85 77.7906C484.305 87.0056 477.363 97.4828 468.021 109.222C458.68 120.836 450.286 130.177 442.838 137.246L439.809 145.956C438.294 150.374 436.842 155.739 435.454 162.051C434.065 168.362 433.434 172.843 433.56 175.494C433.56 179.281 434.949 181.175 437.726 181.175C440.503 181.175 443.785 179.597 447.572 176.441C451.485 173.285 454.325 170.571 456.092 168.299C457.86 165.901 459.879 162.808 462.152 159.021C464.55 155.234 466.57 151.952 468.211 149.175C469.978 146.398 470.988 145.009 471.24 145.009C471.998 145.009 472.376 146.208 472.376 148.607C472.376 150.879 471.745 153.088 470.483 155.234C463.54 166.974 457.923 175.242 453.631 180.039C444.921 189.632 435.958 194.429 426.744 194.429C419.675 194.429 416.14 189.632 416.14 180.039C416.14 170.571 420.369 154.035 428.826 130.429C429.457 128.41 430.909 124.181 433.181 117.743C435.454 111.305 437.41 106.319 439.051 102.785C440.692 99.1239 442.901 94.327 445.678 88.3941C448.455 82.4612 451.106 77.7275 453.631 74.193C456.282 70.6585 459.185 67.0609 462.341 63.4002C468.526 56.0787 475.217 52.418 482.412 52.418C489.607 52.418 493.205 55.7 493.205 62.2641C493.205 67.3134 491.753 72.4889 488.85 77.7906ZM484.873 57.1517H483.548C475.848 57.1517 463.54 80.2522 446.625 126.453C463.919 106.13 475.722 89.4671 482.033 76.4652C485.568 68.5126 487.335 63.337 487.335 60.9386C487.335 58.414 486.514 57.1517 484.873 57.1517Z" fill="#10143A"/>
<path d="M540.181 119.447H547.944C544.031 121.846 540.055 127.779 536.015 137.246C532.733 145.199 529.956 152.457 527.684 159.021C525.412 165.459 524.023 169.372 523.518 170.761C523.013 172.149 521.814 175.557 519.921 180.985C518.153 186.287 516.702 190.39 515.566 193.293C512.41 202.129 508.749 209.135 504.583 214.311C500.418 219.486 495.242 223.589 489.057 226.618C482.871 229.774 476.623 231.352 470.311 231.352C464 231.352 458.635 230.09 454.217 227.565C449.672 225.167 447.4 221.317 447.4 216.015C447.4 213.238 448.284 210.713 450.051 208.441C451.692 206.295 453.649 205.222 455.921 205.222C458.067 205.222 459.897 205.727 461.412 206.737C462.927 207.747 464 208.883 464.631 210.145C462.359 210.902 461.223 213.553 461.223 218.098C461.223 220.496 462.043 222.39 463.684 223.778C465.451 225.293 467.66 226.05 470.311 226.05C480.536 226.05 489.12 216.898 496.063 198.595L506.856 169.814C500.923 177.262 495.747 182.879 491.329 186.666C487.037 190.327 483.629 192.536 481.104 193.293C478.706 194.05 475.802 194.429 472.394 194.429C469.112 194.429 466.461 193.104 464.442 190.453C462.422 187.676 461.412 183.699 461.412 178.524C461.538 173.222 463.053 165.711 465.956 155.991C468.986 146.272 472.268 138.571 475.802 132.891C479.463 127.211 483.187 123.55 486.974 121.909C490.887 120.268 496.189 119.447 502.879 119.447C503.384 119.447 503.637 119.7 503.637 120.205C503.637 120.71 503.258 121.341 502.5 122.098C497.325 126.642 492.023 134.784 486.595 146.524C481.294 158.264 478.643 168.173 478.643 176.252C478.643 180.544 479.842 182.69 482.24 182.69C486.785 182.69 492.591 178.145 499.66 169.056C506.729 159.968 512.157 150.879 515.944 141.79C516.449 140.528 517.143 138.698 518.027 136.299C519.037 133.901 519.731 132.26 520.11 131.376C520.489 130.493 521.057 129.293 521.814 127.779C522.698 126.138 523.455 125.065 524.086 124.56C524.717 123.928 525.538 123.171 526.548 122.287C527.684 121.404 528.82 120.836 529.956 120.583C533.617 119.826 537.025 119.447 540.181 119.447Z" fill="#10143A"/>
<path fill-rule="evenodd" clip-rule="evenodd" d="M420.228 48.7235L427.689 45.8139C429.85 44.9707 431.283 42.815 431.283 40.406C431.283 37.997 429.85 35.8413 427.689 34.9985L338.884 0.364809C337.637 -0.121603 336.264 -0.121603 335.017 0.364809L246.212 34.9985C244.051 35.8413 242.618 37.997 242.618 40.406C242.618 42.815 244.051 44.9707 246.212 45.8135L283.012 60.1653C275.843 81.288 276.061 94.1732 276.17 100.617C276.194 102.004 276.212 103.093 276.15 103.901C276.15 105.816 277.06 107.607 278.579 108.681C280.098 109.755 282.027 109.972 283.73 109.261C283.859 109.207 296.706 103.901 309.314 103.901C320.977 103.901 333.381 114.084 333.497 114.181C335.516 115.867 338.385 115.867 340.403 114.181C343.826 111.322 354.842 103.901 364.587 103.901C377.125 103.901 390.046 109.209 390.171 109.261C391.873 109.972 393.803 109.755 395.322 108.681C396.841 107.607 397.751 105.816 397.751 103.901C397.695 103.177 397.713 102.163 397.735 100.852C397.842 94.5367 398.066 81.3115 390.889 60.1653L420.228 48.7235ZM283.386 61.2973L283.08 61.1872L282.86 61.7987L283.165 61.9089L336.624 81.1598C336.695 81.1855 336.773 81.1855 336.844 81.1598L390.302 61.9089L390.608 61.7987L390.388 61.1872L390.082 61.2973L336.734 80.5086L283.386 61.2973Z" fill="#10143A"/>
<rect x="417.843" y="38.5021" width="7.37355" height="30.8016" fill="#10143A"/>
<ellipse cx="421.529" cy="69.3034" rx="7.37355" ry="7.7004" fill="#10143A"/>
</svg>
