<?xml version="1.0" encoding="UTF-8" standalone="no"?>
<svg
   xmlns:dc="http://purl.org/dc/elements/1.1/"
   xmlns:cc="http://creativecommons.org/ns#"
   xmlns:rdf="http://www.w3.org/1999/02/22-rdf-syntax-ns#"
   xmlns:svg="http://www.w3.org/2000/svg"
   xmlns="http://www.w3.org/2000/svg"
   xmlns:sodipodi="http://sodipodi.sourceforge.net/DTD/sodipodi-0.dtd"
   xmlns:inkscape="http://www.inkscape.org/namespaces/inkscape"
   width="548"
   height="232"
   viewBox="0 0 548 232"
   fill="none"
   version="1.1"
   id="svg22"
   sodipodi:docname="logo-colors.svg"
   inkscape:version="1.0.1 (3bc2e813f5, 2020-09-07)">
  <metadata
     id="metadata28">
    <rdf:RDF>
      <cc:Work
         rdf:about="">
        <dc:format>image/svg+xml</dc:format>
        <dc:type
           rdf:resource="http://purl.org/dc/dcmitype/StillImage" />
      </cc:Work>
    </rdf:RDF>
  </metadata>
  <defs
     id="defs26" />
  <sodipodi:namedview
     pagecolor="#ffffff"
     bordercolor="#666666"
     borderopacity="1"
     objecttolerance="10"
     gridtolerance="10"
     guidetolerance="10"
     inkscape:pageopacity="0"
     inkscape:pageshadow="2"
     inkscape:window-width="855"
     inkscape:window-height="480"
     id="namedview24"
     showgrid="false"
     inkscape:zoom="2.1332117"
     inkscape:cx="274"
     inkscape:cy="116"
     inkscape:window-x="0"
     inkscape:window-y="25"
     inkscape:window-maximized="0"
     inkscape:current-layer="svg22"
     inkscape:document-rotation="0" />
  <path
     d="m 73.088398,57.7197 c 11.739602,0 20.134,1.8935 25.183304,5.6805 5.049298,3.7869 7.574298,8.3944 7.574298,13.8224 0,5.3017 -1.831,10.2879 -5.491,14.9585 -3.534999,4.5443 -8.521098,6.8165 -14.959002,6.8165 -6.437799,0 -9.656696,-2.714 -9.656696,-8.1419 0,-0.505 0.126197,-1.5148 0.3787,-3.0296 3.4083,0 6.374699,-1.3255 8.899296,-3.9763 2.524701,-2.6509 3.787,-5.5542 3.787,-8.71 0,-3.1559 -1.514797,-5.7436 -4.544297,-7.7633 -3.029599,-2.0197 -6.690402,-3.0296 -10.982201,-3.0296 -7.321501,0 -13.380699,2.2091 -18.177499,6.6272 -4.796801,4.4181 -7.195201,9.5936 -7.195201,15.5265 0,3.1558 1.1361,6.6272 3.4083,10.4142 2.2721,3.7872 4.418099,6.8162 6.437799,9.0892 2.146001,2.145 5.554201,5.427 10.224799,9.846 4.796801,4.292 7.637003,6.879 8.520699,7.763 9.593601,9.594 14.390402,20.071 14.390402,31.432 0,11.234 -5.1124,21.08 -15.337199,29.538 -10.2248,8.331 -22.4693,12.497 -36.7335,12.497 -11.6134,0 -21.0177,-1.893 -28.2129,-5.68 C 3.5345,187.613 0,181.68 0,173.601 c 0,-4.418 1.45167,-8.458 4.35501,-12.118 2.9033401,-3.661 7.00589,-5.492 12.30759,-5.492 5.428,0 9.0888,1.894 10.9822,5.681 -4.4181,3.534 -6.6271,7.826 -6.6271,12.876 0,4.923 1.641,8.773 4.923,11.55 3.4083,2.651 7.8264,3.976 13.2544,3.976 7.5739,0 14.2011,-2.714 19.881499,-8.142 5.806699,-5.428 8.710101,-12.244 8.710101,-20.449 0,-8.332 -5.427999,-18.241 -16.284,-29.728 -0.1262,-0.253 -2.3353,-2.588 -6.6272,-7.006 -4.2919,-4.544 -7.8895,-9.152 -10.7928,-13.822 -2.7771,-4.671 -4.1657,-10.225 -4.1657,-16.6631 0,-10.9822 4.2919,-19.8184 12.8757,-26.5087 8.5838,-6.6903 18.682398,-10.0355 30.295698,-10.0355 z"
     fill="#10143A"
     id="path2"
     style="fill:#10143a;stroke-width:1;fill-opacity:1" />
  <path
     d="m 171.443,144.82 c 0.757,0 1.136,1.199 1.136,3.598 0,2.398 -1.073,5.364 -3.219,8.899 -2.02,3.534 -3.661,6.248 -4.923,8.142 -1.136,1.767 -3.156,4.67 -6.059,8.71 -2.903,4.039 -5.428,6.943 -7.574,8.71 -2.146,1.767 -4.86,3.85 -8.142,6.248 -5.554,4.04 -12.813,6.06 -21.775,6.06 -8.836,0 -15.274,-2.21 -19.314,-6.628 -3.9127,-4.544 -5.869298,-10.414 -5.869298,-17.609 0,-13.254 4.670298,-25.373 14.011298,-36.355 9.468,-11.108 20.576,-16.663 33.326,-16.663 5.68,0 10.225,1.515 13.633,4.545 3.408,2.903 5.112,6.438 5.112,10.603 0,4.04 -1.136,7.574 -3.408,10.604 -2.272,3.029 -4.86,4.544 -7.763,4.544 -5.681,0 -8.521,-2.335 -8.521,-7.006 0,-1.515 1.578,-2.966 4.734,-4.355 1.262,-0.505 2.398,-1.451 3.408,-2.84 1.01,-1.389 1.515,-3.219 1.515,-5.491 0,-3.282 -1.767,-4.923 -5.302,-4.923 -7.574,0 -15.085,5.491 -22.532,16.473 -7.448,10.982 -11.172,21.649 -11.172,32 0,10.225 4.481,15.337 13.444,15.337 12.497,0 24.678,-9.657 36.544,-28.97 2.398,-3.787 4.355,-7.006 5.87,-9.657 1.641,-2.651 2.588,-3.976 2.84,-3.976 z"
     fill="#10143A"
     id="path4"
     style="fill:#10143a;stroke-width:1;fill-opacity:1" />
  <path
     d="m 253.696,155.234 c -15.527,26.13 -28.655,39.195 -39.385,39.195 -7.448,0 -11.171,-4.292 -11.171,-12.876 0,-9.972 3.976,-24.173 11.928,-42.603 1.768,-4.67 2.651,-7.889 2.651,-9.657 0,-2.524 -1.136,-3.787 -3.408,-3.787 -1.515,0 -4.102,0.884 -7.763,2.651 -3.535,1.768 -6.943,4.355 -10.225,7.764 -3.282,3.408 -6.059,7.384 -8.331,11.928 -2.146,4.419 -3.913,8.269 -5.302,11.551 -1.262,3.282 -2.588,7.321 -3.976,12.118 -1.389,4.671 -2.651,8.521 -3.787,11.55 -1.01,2.904 -2.083,6.312 -3.219,10.225 h -18.367 c 3.408,-8.71 8.268,-22.596 14.58,-41.657 6.438,-19.187 11.929,-34.208 16.473,-45.064 4.544,-10.9826 8.963,-20.1976 13.254,-27.6453 4.419,-7.5739 9.405,-13.8855 14.959,-18.9348 5.68,-5.0493 11.613,-7.5739 17.799,-7.5739 6.311,0 9.467,2.9664 9.467,8.8993 0,4.1657 -1.704,9.6568 -5.112,16.4733 -7.322,14.3905 -19.566,31.0534 -36.734,49.9884 6.817,-4.924 12.182,-8.142 16.095,-9.657 4.039,-1.515 7.889,-2.272 11.55,-2.272 7.195,0 10.793,3.155 10.793,9.467 0,2.525 -0.442,4.86 -1.326,7.006 -0.883,2.146 -1.893,4.607 -3.029,7.384 -1.01,2.778 -1.894,5.05 -2.651,6.817 -0.631,1.767 -1.515,4.166 -2.651,7.195 -1.136,3.03 -2.02,5.618 -2.651,7.764 -1.641,5.301 -2.461,9.53 -2.461,12.686 0,3.156 1.073,4.734 3.219,4.734 7.574,0 17.041,-10.983 28.402,-32.947 0.379,-0.884 0.82,-1.325 1.325,-1.325 0.631,0 0.947,1.199 0.947,3.597 0,2.272 -0.631,4.608 -1.893,7.006 z M 230.784,57.1517 c -4.418,0 -10.224,7.0059 -17.42,21.0176 -7.069,14.0118 -14.011,30.1067 -20.828,48.2837 17.294,-20.323 29.097,-36.9859 35.408,-49.9878 3.535,-7.9526 5.302,-13.1282 5.302,-15.5266 0,-2.5246 -0.821,-3.7869 -2.462,-3.7869 z"
     fill="#10143A"
     id="path6"
     style="fill:#10143a;stroke-width:1;fill-opacity:1" />
  <path
     d="m 338.046,146.713 c 0.378,-0.757 0.757,-1.136 1.136,-1.136 0.757,0 1.136,0.947 1.136,2.841 0,6.059 -2.462,11.108 -7.385,15.147 -4.797,3.914 -9.341,5.87 -13.633,5.87 -4.165,0 -7.763,-1.199 -10.793,-3.597 -4.544,8.962 -9.972,16.031 -16.284,21.207 -6.185,5.175 -14.201,7.763 -24.047,7.763 -6.311,0 -11.487,-1.894 -15.526,-5.681 -3.914,-3.913 -5.87,-9.783 -5.87,-17.609 0,-7.953 1.767,-16.095 5.302,-24.426 3.66,-8.457 9.088,-15.716 16.284,-21.775 7.321,-6.059 15.463,-9.089 24.425,-9.089 15.022,0 22.533,7.953 22.533,23.858 0,6.059 -1.326,12.434 -3.976,19.124 1.893,2.651 4.607,3.977 8.142,3.977 6.564,0 12.749,-5.491 18.556,-16.474 z m -31.621,-11.739 c -0.505,-6.691 -3.535,-10.036 -9.089,-10.036 -8.71,0 -17.231,8.458 -25.562,25.373 -4.545,9.341 -6.817,17.799 -6.817,25.373 0,7.574 3.282,11.55 9.846,11.929 5.428,0 10.415,-2.841 14.959,-8.521 4.671,-5.807 8.584,-12.181 11.74,-19.124 -4.292,-3.661 -6.438,-8.268 -6.438,-13.823 0,-3.408 0.883,-6.122 2.651,-8.142 1.893,-2.019 4.418,-3.029 7.573,-3.029 z"
     fill="#10143A"
     id="path8"
     style="fill:#10143a;stroke-width:1;fill-opacity:1" />
  <path
     d="m 423.104,146.713 c 0.379,-0.757 0.758,-1.136 1.137,-1.136 0.757,0 1.136,0.947 1.136,2.841 0,6.059 -2.462,11.108 -7.385,15.147 -4.797,3.914 -9.341,5.87 -13.633,5.87 -4.166,0 -7.763,-1.199 -10.793,-3.597 -4.544,8.962 -9.972,16.031 -16.284,21.207 -6.185,5.175 -14.201,7.763 -24.047,7.763 -6.312,0 -11.487,-1.894 -15.527,-5.681 -3.913,-3.913 -5.869,-9.783 -5.869,-17.609 0,-7.953 1.767,-16.095 5.301,-24.426 3.661,-8.457 9.089,-15.716 16.284,-21.775 7.322,-6.059 15.464,-9.089 24.426,-9.089 15.022,0 22.533,7.953 22.533,23.858 0,6.059 -1.326,12.434 -3.977,19.124 1.894,2.651 4.608,3.977 8.142,3.977 6.564,0 12.75,-5.491 18.556,-16.474 z m -31.621,-11.739 c -0.505,-6.691 -3.534,-10.036 -9.088,-10.036 -8.71,0 -17.231,8.458 -25.562,25.373 -4.545,9.341 -6.817,17.799 -6.817,25.373 0,7.574 3.282,11.55 9.846,11.929 5.428,0 10.414,-2.841 14.959,-8.521 4.67,-5.807 8.583,-12.181 11.739,-19.124 -4.292,-3.661 -6.438,-8.268 -6.438,-13.823 0,-3.408 0.884,-6.122 2.651,-8.142 1.894,-2.019 4.418,-3.029 7.574,-3.029 z"
     fill="#10143A"
     id="path10"
     style="fill:#10143a;stroke-width:1;fill-opacity:1" />
  <path
     d="m 488.85,77.7906 c -4.545,9.215 -11.487,19.6922 -20.829,31.4314 -9.341,11.614 -17.735,20.955 -25.183,28.024 l -3.029,8.71 c -1.515,4.418 -2.967,9.783 -4.355,16.095 -1.389,6.311 -2.02,10.792 -1.894,13.443 0,3.787 1.389,5.681 4.166,5.681 2.777,0 6.059,-1.578 9.846,-4.734 3.913,-3.156 6.753,-5.87 8.52,-8.142 1.768,-2.398 3.787,-5.491 6.06,-9.278 2.398,-3.787 4.418,-7.069 6.059,-9.846 1.767,-2.777 2.777,-4.166 3.029,-4.166 0.758,0 1.136,1.199 1.136,3.598 0,2.272 -0.631,4.481 -1.893,6.627 -6.943,11.74 -12.56,20.008 -16.852,24.805 -8.71,9.593 -17.673,14.39 -26.887,14.39 -7.069,0 -10.604,-4.797 -10.604,-14.39 0,-9.468 4.229,-26.004 12.686,-49.61 0.631,-2.019 2.083,-6.248 4.355,-12.686 2.273,-6.438 4.229,-11.424 5.87,-14.958 1.641,-3.6611 3.85,-8.458 6.627,-14.3909 2.777,-5.9329 5.428,-10.6666 7.953,-14.2011 2.651,-3.5345 5.554,-7.1321 8.71,-10.7928 6.185,-7.3215 12.876,-10.9822 20.071,-10.9822 7.195,0 10.793,3.282 10.793,9.8461 0,5.0493 -1.452,10.2248 -4.355,15.5265 z m -3.977,-20.6389 h -1.325 c -7.7,0 -20.008,23.1005 -36.923,69.3013 17.294,-20.323 29.097,-36.9859 35.408,-49.9878 3.535,-7.9526 5.302,-13.1282 5.302,-15.5266 0,-2.5246 -0.821,-3.7869 -2.462,-3.7869 z"
     fill="#10143A"
     id="path12"
     style="fill:#10143a;stroke-width:1;fill-opacity:1" />
  <path
     d="m 540.181,119.447 h 7.763 c -3.913,2.399 -7.889,8.332 -11.929,17.799 -3.282,7.953 -6.059,15.211 -8.331,21.775 -2.272,6.438 -3.661,10.351 -4.166,11.74 -0.505,1.388 -1.704,4.796 -3.597,10.224 -1.768,5.302 -3.219,9.405 -4.355,12.308 -3.156,8.836 -6.817,15.842 -10.983,21.018 -4.165,5.175 -9.341,9.278 -15.526,12.307 -6.186,3.156 -12.434,4.734 -18.746,4.734 -6.311,0 -11.676,-1.262 -16.094,-3.787 -4.545,-2.398 -6.817,-6.248 -6.817,-11.55 0,-2.777 0.884,-5.302 2.651,-7.574 1.641,-2.146 3.598,-3.219 5.87,-3.219 2.146,0 3.976,0.505 5.491,1.515 1.515,1.01 2.588,2.146 3.219,3.408 -2.272,0.757 -3.408,3.408 -3.408,7.953 0,2.398 0.82,4.292 2.461,5.68 1.767,1.515 3.976,2.272 6.627,2.272 10.225,0 18.809,-9.152 25.752,-27.455 l 10.793,-28.781 c -5.933,7.448 -11.109,13.065 -15.527,16.852 -4.292,3.661 -7.7,5.87 -10.225,6.627 -2.398,0.757 -5.302,1.136 -8.71,1.136 -3.282,0 -5.933,-1.325 -7.952,-3.976 -2.02,-2.777 -3.03,-6.754 -3.03,-11.929 0.126,-5.302 1.641,-12.813 4.544,-22.533 3.03,-9.719 6.312,-17.42 9.846,-23.1 3.661,-5.68 7.385,-9.341 11.172,-10.982 3.913,-1.641 9.215,-2.462 15.905,-2.462 0.505,0 0.758,0.253 0.758,0.758 0,0.505 -0.379,1.136 -1.137,1.893 -5.175,4.544 -10.477,12.686 -15.905,24.426 -5.301,11.74 -7.952,21.649 -7.952,29.728 0,4.292 1.199,6.438 3.597,6.438 4.545,0 10.351,-4.545 17.42,-13.634 7.069,-9.088 12.497,-18.177 16.284,-27.266 0.505,-1.262 1.199,-3.092 2.083,-5.491 1.01,-2.398 1.704,-4.039 2.083,-4.923 0.379,-0.883 0.947,-2.083 1.704,-3.597 0.884,-1.641 1.641,-2.714 2.272,-3.219 0.631,-0.632 1.452,-1.389 2.462,-2.273 1.136,-0.883 2.272,-1.451 3.408,-1.704 3.661,-0.757 7.069,-1.136 10.225,-1.136 z"
     fill="#10143A"
     id="path14"
     style="fill:#10143a;stroke-width:1;fill-opacity:1" />
  <path
     fill-rule="evenodd"
     clip-rule="evenodd"
     d="m 420.228,48.7235 7.461,-2.9096 c 2.161,-0.8432 3.594,-2.9989 3.594,-5.4079 0,-2.409 -1.433,-4.5647 -3.594,-5.4075 L 338.884,0.364809 c -1.247,-0.486412 -2.62,-0.486412 -3.867,0 L 246.212,34.9985 c -2.161,0.8428 -3.594,2.9985 -3.594,5.4075 0,2.409 1.433,4.5647 3.594,5.4075 l 36.8,14.3518 c -7.169,21.1227 -6.951,34.0079 -6.842,40.4517 0.024,1.387 0.042,2.476 -0.02,3.284 0,1.915 0.91,3.706 2.429,4.78 1.519,1.074 3.448,1.291 5.151,0.58 0.129,-0.054 12.976,-5.36 25.584,-5.36 11.663,0 24.067,10.183 24.183,10.28 2.019,1.686 4.888,1.686 6.906,0 3.423,-2.859 14.439,-10.28 24.184,-10.28 12.538,0 25.459,5.308 25.584,5.36 1.702,0.711 3.632,0.494 5.151,-0.58 1.519,-1.074 2.429,-2.865 2.429,-4.78 -0.056,-0.724 -0.038,-1.738 -0.016,-3.049 0.107,-6.3153 0.331,-19.5405 -6.846,-40.6867 z m -136.842,12.5738 -0.306,-0.1101 -0.22,0.6115 0.305,0.1102 53.459,19.2509 c 0.071,0.0257 0.149,0.0257 0.22,0 l 53.458,-19.2509 0.306,-0.1102 -0.22,-0.6115 -0.306,0.1101 -53.348,19.2113 z"
     fill="#10143A"
     id="path16"
     style="fill:#10143a;stroke-width:1;fill-opacity:1" />
  <rect
     x="417.84299"
     y="38.502102"
     width="7.3735499"
     height="30.8016"
     fill="#10143A"
     id="rect18"
     style="fill:#10143a;stroke-width:1;fill-opacity:1" />
  <ellipse
     cx="421.52899"
     cy="69.303398"
     rx="7.3735499"
     ry="7.7003999"
     fill="#10143A"
     id="ellipse20"
     style="fill:#10143a;stroke-width:1;fill-opacity:1" />
</svg>
