<?xml version="1.0" encoding="UTF-8" standalone="no"?>
<svg
   xmlns:dc="http://purl.org/dc/elements/1.1/"
   xmlns:cc="http://creativecommons.org/ns#"
   xmlns:rdf="http://www.w3.org/1999/02/22-rdf-syntax-ns#"
   xmlns:svg="http://www.w3.org/2000/svg"
   xmlns="http://www.w3.org/2000/svg"
   xmlns:sodipodi="http://sodipodi.sourceforge.net/DTD/sodipodi-0.dtd"
   xmlns:inkscape="http://www.inkscape.org/namespaces/inkscape"
   viewBox="0 0 500 500"
   version="1.1"
   id="svg14"
   sodipodi:docname="logo-mini-colors.svg"
   inkscape:version="1.0.1 (3bc2e813f5, 2020-09-07)">
  <metadata
     id="metadata20">
    <rdf:RDF>
      <cc:Work
         rdf:about="">
        <dc:format>image/svg+xml</dc:format>
        <dc:type
           rdf:resource="http://purl.org/dc/dcmitype/StillImage" />
      </cc:Work>
    </rdf:RDF>
  </metadata>
  <defs
     id="defs18" />
  <sodipodi:namedview
     pagecolor="#ffffff"
     bordercolor="#666666"
     borderopacity="1"
     objecttolerance="10"
     gridtolerance="10"
     guidetolerance="10"
     inkscape:pageopacity="0"
     inkscape:pageshadow="2"
     inkscape:window-width="1920"
     inkscape:window-height="1025"
     id="namedview16"
     showgrid="false"
     inkscape:zoom="0.867"
     inkscape:cx="261.3395"
     inkscape:cy="305.07568"
     inkscape:window-x="0"
     inkscape:window-y="25"
     inkscape:window-maximized="1"
     inkscape:current-layer="svg14"
     inkscape:document-rotation="0" />
  <g
     transform="matrix(2.4398825,0,0,2.4398825,-548.88151,-212.72152)"
     id="g12"
     style="fill:#10143a;fill-opacity:1">
    <path
       d="m 329.951,240.402 c 0.378,-0.757 0.757,-1.136 1.136,-1.136 0.757,0 1.136,0.947 1.136,2.841 0,6.059 -2.462,11.108 -7.385,15.147 -4.797,3.914 -9.341,5.87 -13.633,5.87 -4.165,0 -7.763,-1.199 -10.793,-3.597 -4.544,8.962 -9.972,16.031 -16.284,21.207 -6.185,5.175 -14.201,7.763 -24.047,7.763 -6.311,0 -11.487,-1.894 -15.526,-5.681 -3.914,-3.913 -5.87,-9.783 -5.87,-17.609 0,-7.953 1.767,-16.095 5.302,-24.426 3.66,-8.457 9.088,-15.716 16.284,-21.775 7.321,-6.059 15.463,-9.089 24.425,-9.089 15.022,0 22.533,7.953 22.533,23.858 0,6.059 -1.326,12.434 -3.976,19.124 1.893,2.651 4.607,3.977 8.142,3.977 6.564,0 12.749,-5.491 18.556,-16.474 z M 298.33,228.663 c -0.505,-6.691 -3.535,-10.036 -9.089,-10.036 -8.71,0 -17.231,8.458 -25.562,25.373 -4.545,9.341 -6.817,17.799 -6.817,25.373 0,7.574 3.282,11.55 9.846,11.929 5.428,0 10.415,-2.841 14.959,-8.521 4.671,-5.807 8.584,-12.181 11.74,-19.124 -4.292,-3.661 -6.438,-8.268 -6.438,-13.823 0,-3.408 0.883,-6.122 2.651,-8.142 1.893,-2.019 4.418,-3.029 7.573,-3.029 z"
       fill="#10143a"
       id="path2"
       style="fill:#10143a;fill-opacity:1" />
    <path
       d="m 388.311,252.899 c -1.636,4.19 -0.625,1.514 -2.84,6.628 -4.544,8.962 -9.972,16.031 -16.284,21.207 -6.185,5.175 -14.201,7.763 -24.047,7.763 -6.312,0 -11.487,-1.894 -15.527,-5.681 -3.913,-3.913 -5.869,-9.783 -5.869,-17.609 0,-7.953 1.767,-16.095 5.301,-24.426 3.661,-8.457 9.089,-15.716 16.284,-21.775 7.322,-6.059 15.464,-9.089 24.426,-9.089 15.022,0 22.533,7.953 22.533,23.858 0,6.059 -1.326,12.434 -3.977,19.124 z m -4.923,-24.236 c -0.505,-6.691 -3.534,-10.036 -9.088,-10.036 -8.71,0 -17.231,8.458 -25.562,25.373 -4.545,9.341 -6.817,17.799 -6.817,25.373 0,7.574 3.282,11.55 9.846,11.929 5.428,0 10.414,-2.841 14.959,-8.521 4.67,-5.807 8.583,-12.181 11.739,-19.124 -4.292,-3.661 -6.438,-8.268 -6.438,-13.823 0,-3.408 0.884,-6.122 2.651,-8.142 1.894,-2.019 4.418,-3.029 7.574,-3.029 z"
       fill="#10143a"
       id="path4"
       style="fill:#10143a;fill-opacity:1" />
    <path
       fill-rule="evenodd"
       clip-rule="evenodd"
       d="m 412.133,142.412 7.461,-2.909 c 2.161,-0.843 3.594,-2.999 3.594,-5.408 0,-2.409 -1.433,-4.565 -3.594,-5.408 L 330.789,94.054 c -1.247,-0.487 -2.62,-0.487 -3.867,0 l -88.805,34.633 c -2.161,0.843 -3.594,2.999 -3.594,5.408 0,2.409 1.433,4.565 3.594,5.407 l 36.8,14.352 c -7.169,21.123 -6.951,34.008 -6.842,40.452 0.024,1.387 0.042,2.476 -0.02,3.284 0,1.915 0.91,3.706 2.429,4.78 1.519,1.074 3.448,1.291 5.151,0.58 0.129,-0.054 12.976,-5.36 25.584,-5.36 11.663,0 24.067,10.183 24.183,10.28 2.019,1.686 4.888,1.686 6.906,0 3.423,-2.859 14.439,-10.28 24.184,-10.28 12.538,0 25.459,5.308 25.584,5.36 1.702,0.711 3.632,0.494 5.151,-0.58 1.519,-1.074 2.429,-2.865 2.429,-4.78 -0.056,-0.724 -0.038,-1.738 -0.016,-3.049 0.107,-6.315 0.331,-19.541 -6.846,-40.687 z m -136.842,12.574 -0.306,-0.11 -0.22,0.612 0.305,0.11 53.459,19.251 c 0.071,0.025 0.149,0.025 0.22,0 l 53.458,-19.251 0.306,-0.11 -0.22,-0.612 -0.306,0.11 -53.348,19.212 z"
       fill="#10143a"
       id="path6"
       style="fill:#10143a;fill-opacity:1" />
    <rect
       x="409.74799"
       y="132.19099"
       width="7.3740001"
       height="30.802"
       fill="#10143a"
       id="rect8"
       style="fill:#10143a;fill-opacity:1" />
    <ellipse
       cx="413.43399"
       cy="162.992"
       rx="7.3740001"
       ry="7.6999998"
       fill="#10143a"
       id="ellipse10"
       style="fill:#10143a;fill-opacity:1" />
  </g>
</svg>
